<svg width="74" height="74" viewBox="0 0 74 74" fill="none" xmlns="http://www.w3.org/2000/svg">
<rect width="74" height="74" rx="15" fill="#009CF0"/>
<path d="M53.8687 48.4959C53.9908 48.9548 53.9902 49.4378 53.8669 49.8964C53.7436 50.355 53.5019 50.7731 53.1661 51.1089C52.8303 51.4447 52.4121 51.6864 51.9535 51.8097C51.4949 51.933 51.012 51.9336 50.553 51.8115L47.4446 50.9826C45.6593 51.8986 43.6807 52.3741 41.6741 52.3694C41.0338 52.3692 40.3944 52.3213 39.7612 52.226C37.3002 51.8362 35.0095 50.7269 33.1777 49.0378C33.6241 49.0378 34.0545 49.0378 34.5008 48.9422C36.8072 48.5984 39.0102 47.7527 40.9542 46.4648C42.8982 45.1769 44.536 43.4782 45.7521 41.4884C46.9681 39.4987 47.7328 37.2663 47.9922 34.9489C48.2516 32.6314 47.9994 30.2853 47.2533 28.0759C49.1246 28.9727 50.7488 30.3126 51.985 31.9793C53.2212 33.646 54.0319 35.5892 54.3469 37.6403C54.7498 40.2684 54.3147 42.9567 53.1035 45.3237L53.8687 48.4959ZM41.1162 24.2183C39.4475 22.5531 37.3499 21.383 35.0564 20.838C32.7629 20.293 30.3631 20.3944 28.1238 21.131C25.8844 21.8675 23.893 23.2104 22.3708 25.0104C20.8486 26.8104 19.8551 28.9972 19.5006 31.3278C19.0978 33.9559 19.5328 36.6442 20.744 39.0112L19.9151 42.1993C19.7858 42.6578 19.7828 43.1428 19.9062 43.6029C20.0297 44.063 20.2751 44.4813 20.6165 44.8136C20.9487 45.155 21.367 45.4004 21.8271 45.5238C22.2873 45.6473 22.7722 45.6442 23.2307 45.515L26.3392 44.6861C28.1314 45.5744 30.1096 46.0225 32.1097 45.9932C34.6334 45.9952 37.1009 45.2483 39.1999 43.8472C41.2989 42.4461 42.9349 40.4537 43.901 38.1222C44.867 35.7907 45.1196 33.2251 44.6267 30.75C44.1338 28.2749 42.9176 26.0018 41.1321 24.2183H41.1162Z" fill="white"/>
</svg>
