<svg width="70" height="70" viewBox="0 0 70 70" fill="none" xmlns="http://www.w3.org/2000/svg">
<rect width="70" height="70" rx="15" fill="#A683FB"/>
<path d="M50.95 30.5219L48.06 30.1545C47.8217 29.4212 47.5281 28.7141 47.1853 28.0423L48.97 25.7442C49.6925 24.8142 49.608 23.5014 48.7825 22.702L46.3613 20.2809C45.5543 19.4477 44.2415 19.3647 43.3099 20.0857L41.0149 21.8704C40.3431 21.5276 39.636 21.234 38.9012 20.9957L38.5338 18.1103C38.3954 16.9528 37.4131 16.0812 36.2495 16.0812H32.8061C31.6424 16.0812 30.6601 16.9528 30.5218 18.1057L30.1544 20.9957C29.4196 21.234 28.7124 21.526 28.0407 21.8704L25.7441 20.0857C24.8156 19.3647 23.5028 19.4477 22.7019 20.2732L20.2808 22.6928C19.4476 23.5014 19.363 24.8142 20.0855 25.7457L21.8702 28.0423C21.5259 28.7141 21.2338 29.4212 20.9956 30.1545L18.1102 30.5219C16.9527 30.6602 16.0811 31.6425 16.0811 32.8062V36.2496C16.0811 37.4133 16.9527 38.3956 18.1056 38.5339L20.9956 38.9013C21.2338 39.6346 21.5274 40.3417 21.8702 41.0134L20.0855 43.3116C19.363 44.2416 19.4476 45.5544 20.2731 46.3538L22.6942 48.7749C23.5028 49.6065 24.814 49.6895 25.7456 48.9686L28.0422 47.1839C28.714 47.5282 29.4211 47.8218 30.1544 48.0586L30.5218 50.9424C30.6601 52.103 31.6424 52.9746 32.8061 52.9746H36.2495C37.4131 52.9746 38.3954 52.103 38.5338 50.9501L38.9012 48.0601C39.6344 47.8218 40.3416 47.5282 41.0133 47.1854L43.3115 48.9701C44.2415 49.6926 45.5543 49.6081 46.3536 48.7826L48.7748 46.3615C49.608 45.5529 49.6925 44.2416 48.97 43.3101L47.1853 41.0134C47.5296 40.3417 47.8232 39.6346 48.06 38.9013L50.9438 38.5339C52.1013 38.3956 52.9729 37.4133 52.9729 36.2496V32.8062C52.9745 31.6425 52.1029 30.6602 50.95 30.5219ZM34.5278 42.214C30.2896 42.214 26.8416 38.766 26.8416 34.5279C26.8416 30.2898 30.2896 26.8418 34.5278 26.8418C38.7659 26.8418 42.2139 30.2898 42.2139 34.5279C42.2139 38.766 38.7659 42.214 34.5278 42.214Z" fill="white"/>
</svg>
