<svg width="35" height="35" viewBox="0 0 35 35" fill="none" xmlns="http://www.w3.org/2000/svg">
<path d="M23.5447 13.011C22.5249 12.543 21.4314 12.1983 20.288 12.0008C20.2672 11.997 20.2463 12.0065 20.2356 12.0256C20.095 12.2757 19.9392 12.602 19.8301 12.8585C18.6003 12.6744 17.3768 12.6744 16.1722 12.8585C16.0631 12.5964 15.9017 12.2757 15.7604 12.0256C15.7497 12.0072 15.7289 11.9976 15.7081 12.0008C14.5653 12.1976 13.4717 12.5424 12.4513 13.011C12.4425 13.0148 12.4349 13.0211 12.4299 13.0294C10.3556 16.1283 9.78737 19.151 10.0661 22.1363C10.0674 22.1509 10.0756 22.1648 10.0869 22.1737C11.4555 23.1788 12.7812 23.7889 14.0822 24.1933C14.103 24.1997 14.1251 24.1921 14.1383 24.1749C14.4461 23.7547 14.7204 23.3115 14.9556 22.8455C14.9695 22.8182 14.9562 22.7858 14.9279 22.775C14.4927 22.6099 14.0784 22.4087 13.6798 22.1801C13.6482 22.1617 13.6457 22.1166 13.6747 22.095C13.7586 22.0322 13.8425 21.9668 13.9226 21.9007C13.9371 21.8887 13.9573 21.8862 13.9743 21.8937C16.5928 23.0893 19.4277 23.0893 22.0153 21.8937C22.0323 21.8855 22.0525 21.8881 22.0676 21.9001C22.1478 21.9661 22.2316 22.0322 22.3161 22.095C22.3451 22.1166 22.3432 22.1617 22.3117 22.1801C21.9131 22.4131 21.4988 22.6099 21.063 22.7743C21.0346 22.7851 21.022 22.8182 21.0359 22.8454C21.2762 23.3108 21.5505 23.754 21.8526 24.1743C21.8652 24.1921 21.8879 24.1997 21.9087 24.1933C23.2161 23.7889 24.5418 23.1787 25.9103 22.1737C25.9223 22.1648 25.9299 22.1515 25.9311 22.1369C26.2647 18.6856 25.3723 15.6876 23.5655 13.03C23.5611 13.0211 23.5535 13.0148 23.5447 13.011ZM15.3467 20.3186C14.5584 20.3186 13.9088 19.5948 13.9088 18.7059C13.9088 17.8171 14.5457 17.0933 15.3467 17.0933C16.1539 17.0933 16.7973 17.8234 16.7846 18.7059C16.7846 19.5948 16.1476 20.3186 15.3467 20.3186ZM20.6632 20.3186C19.8749 20.3186 19.2253 19.5948 19.2253 18.7059C19.2253 17.8171 19.8623 17.0933 20.6632 17.0933C21.4704 17.0933 22.1137 17.8234 22.1011 18.7059C22.1011 19.5948 21.4705 20.3186 20.6632 20.3186Z" fill="#09001B"/>
<circle cx="17.5" cy="17.5" r="17" stroke="#DBDBDB"/>
</svg>
