<svg width="78" height="63" viewBox="0 0 78 63" fill="none" xmlns="http://www.w3.org/2000/svg">
<path d="M29.2928 13.1908C29.2888 13.1809 29.2819 13.1725 29.273 13.1665C29.2642 13.1606 29.2537 13.1574 29.2431 13.1574C29.2324 13.1574 29.222 13.1606 29.2131 13.1665C29.2042 13.1725 29.1974 13.1809 29.1933 13.1908L23.1066 27.6987C23.086 27.748 23.0488 27.7727 22.995 27.7727H18.9673C18.9632 27.7725 18.9592 27.7714 18.9556 27.7694C18.952 27.7674 18.949 27.7646 18.9468 27.7611C18.9445 27.7577 18.9431 27.7538 18.9427 27.7497C18.9423 27.7456 18.9429 27.7415 18.9444 27.7377C25.777 11.6133 29.5882 2.62092 30.3781 0.760581C30.4955 0.483548 30.7277 0.266584 31.0747 0.109688C31.7364 -0.188863 32.5392 0.148687 32.8257 0.799581C39.7282 16.473 43.6802 25.4475 44.6816 27.7229C44.6841 27.7283 44.6852 27.7342 44.6848 27.7401C44.6844 27.7461 44.6825 27.7518 44.6793 27.7568C44.6761 27.7617 44.6716 27.7658 44.6664 27.7686C44.6611 27.7714 44.6553 27.7728 44.6493 27.7727H35.4817C35.4342 27.7727 35.401 27.7507 35.3822 27.7068L29.2928 13.1908Z" fill="#009CF0"/>
<path d="M43.4003 13.1316L41.6224 17.3705C41.6203 17.3754 41.6168 17.3796 41.6123 17.3826C41.6079 17.3855 41.6027 17.3872 41.5973 17.3874C41.5919 17.3875 41.5866 17.3861 41.582 17.3834C41.5774 17.3806 41.5737 17.3766 41.5713 17.3718L39.5164 12.7927C39.4976 12.7505 39.4972 12.7084 39.5151 12.6663C40.3103 10.7835 41.9268 6.9669 44.3645 1.21644C44.5671 0.738583 44.7559 0.429273 44.9307 0.288515C45.4874 -0.159311 46.4261 -0.0678628 46.8565 0.533273C46.9148 0.614859 47.0412 0.8771 47.2357 1.32C50.2571 8.17859 54.1284 16.9692 58.8496 27.692C58.8738 27.7467 58.8563 27.774 58.7972 27.774H49.6228C49.614 27.774 49.6054 27.7715 49.598 27.7667C49.5906 27.7619 49.5847 27.7551 49.5811 27.7471L43.45 13.1316C43.448 13.1266 43.4446 13.1224 43.4401 13.1194C43.4357 13.1165 43.4305 13.1149 43.4252 13.1149C43.4198 13.1149 43.4146 13.1165 43.4102 13.1194C43.4058 13.1224 43.4023 13.1266 43.4003 13.1316Z" fill="#A4D8F4"/>
<path d="M54.3548 31.3807L54.3696 31.3256C54.3831 31.2754 54.4158 31.2502 54.4678 31.2502H54.6588C54.7099 31.2502 54.7381 31.2758 54.7435 31.3269L54.9788 33.6171C54.9833 33.6646 54.9618 33.6884 54.9143 33.6884H54.6399C54.5951 33.6884 54.5687 33.666 54.5606 33.6212C54.3643 32.5534 53.4175 31.6201 52.2569 31.885C51.9947 31.9455 51.7566 32.1526 51.6625 32.4055C51.3693 33.1962 52.1197 33.7906 52.7316 34.147C53.1826 34.4097 53.5058 34.5962 53.7013 34.7064C54.9775 35.4246 55.8086 36.8003 54.7368 38.0954C53.9675 39.0247 52.5568 39.0153 51.4729 38.5567C51.2739 38.4733 50.9336 38.4464 50.9188 38.7409C50.9161 38.7983 50.8861 38.831 50.8287 38.8391L50.6606 38.8633C50.5898 38.8731 50.5494 38.8431 50.5396 38.7732L50.2168 36.4964C50.2114 36.4552 50.2298 36.4323 50.272 36.4278L50.5221 36.4023C50.5678 36.3969 50.5943 36.4171 50.6014 36.4628C50.6185 36.5677 50.7713 36.868 51.06 37.3638C51.3873 37.9268 51.871 38.2487 52.5111 38.3294C53.5789 38.4639 54.3266 37.6287 53.8277 36.5838C53.7533 36.4278 53.5663 36.2342 53.2669 36.0029C52.5837 35.4743 51.8293 35.1798 51.1609 34.5881C50.7341 34.2089 50.5243 33.7202 50.5315 33.1222C50.5477 31.9011 51.6558 31.1023 52.8096 31.2825C53.1853 31.3417 53.5565 31.4457 53.9232 31.5945C53.9653 31.6117 54.0107 31.6198 54.0562 31.6181C54.1017 31.6165 54.1464 31.6051 54.1872 31.5849C54.228 31.5647 54.2641 31.536 54.293 31.5008C54.3219 31.4656 54.343 31.4247 54.3548 31.3807Z" fill="#114C6B"/>
<path d="M5.58989 36.4373C5.26803 37.1124 5.08468 37.5988 5.03986 37.8964C4.97665 38.3214 5.35858 38.39 5.6894 38.3698C5.73871 38.3662 5.76337 38.3895 5.76337 38.4397V38.6441C5.76337 38.6926 5.73961 38.7168 5.69209 38.7168H3.53365C3.49689 38.7168 3.47852 38.6979 3.47852 38.6603V38.4505C3.47852 38.4039 3.50183 38.3801 3.54845 38.3792C3.90079 38.3712 4.16572 38.164 4.34324 37.7579C5.1842 35.8411 6.08702 33.7185 7.05171 31.3902C7.06827 31.3505 7.09609 31.3165 7.13174 31.2924C7.16739 31.2683 7.20931 31.2551 7.25234 31.2545C7.29537 31.254 7.33762 31.266 7.3739 31.2891C7.41018 31.3123 7.43889 31.3455 7.4565 31.3848C8.63725 34.0628 9.5217 36.0742 10.1098 37.419C10.3142 37.887 10.4931 38.3913 11.0162 38.3712C11.0799 38.3685 11.1117 38.3994 11.1117 38.4639V38.6307C11.1117 38.6872 11.0835 38.7154 11.027 38.7154H8.30105C8.24726 38.7154 8.22036 38.6885 8.22036 38.6347V38.4344C8.22043 38.4245 8.22263 38.4147 8.22682 38.4058C8.231 38.3968 8.23707 38.3889 8.2446 38.3825C8.25213 38.3761 8.26096 38.3715 8.27047 38.3688C8.27998 38.3661 8.28995 38.3656 8.2997 38.3671C8.57136 38.411 8.78115 38.3608 8.92908 38.2165C8.96315 38.1842 8.97929 38.1443 8.9775 38.0968C8.95867 37.6113 8.60498 36.9658 8.36829 36.444C8.34857 36.401 8.31495 36.3795 8.26743 36.3795H5.68268C5.63965 36.3795 5.60871 36.3987 5.58989 36.4373ZM6.98447 35.8079C7.50267 35.8079 7.86488 35.8043 8.07108 35.7972C8.11322 35.7954 8.12622 35.7752 8.11008 35.7366L7.02481 33.1452C7.01943 33.1317 7.01002 33.1232 6.99657 33.1196C6.99209 33.1178 6.98805 33.1169 6.98447 33.1169C6.98178 33.1169 6.97774 33.1178 6.97236 33.1196C6.95892 33.1232 6.9495 33.1317 6.94412 33.1452L5.85885 35.7366C5.84271 35.7752 5.85571 35.7949 5.89785 35.7958C6.10406 35.8039 6.46626 35.8079 6.98447 35.8079Z" fill="#114C6B"/>
<path d="M15.7709 36.3795C15.7279 36.3795 15.697 36.3987 15.6782 36.4373C15.3563 37.1124 15.1725 37.5988 15.1268 37.8964C15.0636 38.3214 15.4455 38.39 15.7763 38.3698C15.8256 38.3662 15.8503 38.3895 15.8503 38.4397V38.6441C15.8503 38.6926 15.8265 38.7168 15.779 38.7168H13.6206C13.5838 38.7168 13.5654 38.6979 13.5654 38.6603V38.4505C13.5654 38.4039 13.5887 38.3801 13.6354 38.3792C13.9877 38.3712 14.2526 38.164 14.4302 37.7579C15.272 35.8411 16.1753 33.7185 17.14 31.3902C17.1565 31.3505 17.1844 31.3165 17.22 31.2924C17.2557 31.2683 17.2976 31.2551 17.3406 31.2545C17.3836 31.254 17.4259 31.266 17.4622 31.2891C17.4984 31.3123 17.5272 31.3455 17.5448 31.3848C18.7255 34.0637 19.61 36.0755 20.1981 37.4204C20.4025 37.8884 20.5814 38.3927 21.1045 38.3725C21.1682 38.3698 21.2 38.4007 21.2 38.4653V38.632C21.2 38.6885 21.1718 38.7168 21.1153 38.7168L18.388 38.7154C18.3342 38.7154 18.3073 38.6885 18.3073 38.6347V38.4344C18.3074 38.4245 18.3096 38.4147 18.3137 38.4058C18.3179 38.3968 18.324 38.3889 18.3315 38.3825C18.3391 38.3761 18.3479 38.3715 18.3574 38.3688C18.3669 38.3661 18.3769 38.3656 18.3866 38.3671C18.6583 38.4119 18.8685 38.3622 19.0174 38.2178C19.0514 38.1856 19.0676 38.1457 19.0658 38.0982C19.0469 37.6127 18.6932 36.9658 18.4566 36.444C18.4368 36.401 18.4032 36.3795 18.3557 36.3795H15.7709ZM17.0714 35.8079C17.5896 35.8079 17.9518 35.8043 18.158 35.7972C18.2001 35.7954 18.2131 35.7752 18.197 35.7366L17.1131 33.1465C17.1077 33.1331 17.0983 33.1241 17.0848 33.1196C17.0795 33.1187 17.0754 33.1183 17.0727 33.1183C17.0691 33.1183 17.0651 33.1187 17.0606 33.1196C17.0472 33.1241 17.0378 33.1331 17.0324 33.1465L15.9458 35.7366C15.9296 35.7743 15.9431 35.794 15.9861 35.7958C16.1914 35.8039 16.5532 35.8079 17.0714 35.8079Z" fill="#114C6B"/>
<path d="M31.0493 35.0577C31.048 37.3371 29.3925 38.569 27.2395 38.6954C26.7347 38.725 25.5557 38.7326 23.7026 38.7183C23.6685 38.7183 23.6515 38.7008 23.6515 38.6658V38.4412C23.6515 38.3973 23.673 38.3744 23.716 38.3726C24.0321 38.3605 24.5108 38.3471 24.57 37.9275C24.6493 37.3519 24.6103 36.5397 24.6103 35.0563C24.6103 33.573 24.6507 32.762 24.57 32.1851C24.5122 31.7655 24.0334 31.7521 23.7174 31.74C23.6743 31.7382 23.6528 31.7153 23.6528 31.6714V31.4468C23.6528 31.4118 23.6699 31.3944 23.7039 31.3944C25.5571 31.3809 26.736 31.3894 27.2408 31.4199C29.3939 31.5463 31.0493 32.7782 31.0493 35.0577ZM25.8476 32.251L25.8287 37.8966C25.8286 37.9349 25.8359 37.9729 25.8504 38.0084C25.8649 38.0438 25.8863 38.0761 25.9133 38.1033C25.9402 38.1305 25.9723 38.1522 26.0076 38.167C26.043 38.1818 26.0809 38.1896 26.1192 38.1897L26.8293 38.1924C27.2092 38.1937 27.5856 38.1203 27.937 37.9766C28.2884 37.8328 28.608 37.6215 28.8775 37.3546C29.147 37.0877 29.3611 36.7706 29.5076 36.4212C29.6541 36.0719 29.7302 35.6972 29.7314 35.3186L29.7341 34.8559C29.7366 34.0912 29.4342 33.3569 28.8935 32.8144C28.3528 32.2719 27.618 31.9657 26.8508 31.9632L26.1407 31.9605C26.1024 31.9604 26.0644 31.9677 26.029 31.9822C25.9935 31.9967 25.9612 32.0181 25.934 32.0451C25.9068 32.072 25.8851 32.1041 25.8703 32.1394C25.8555 32.1748 25.8477 32.2127 25.8476 32.251Z" fill="#114C6B"/>
<path d="M38.0097 36.6473C38.0294 36.6894 38.0482 36.689 38.0661 36.646C38.5825 35.3576 39.1003 34.0545 39.6194 32.7366C39.8763 32.0843 39.8574 31.7737 39.0573 31.7508C39.0071 31.749 38.982 31.723 38.982 31.6728V31.463C38.982 31.4119 39.0075 31.3864 39.0586 31.3864H41.2587C41.3107 31.3864 41.3367 31.4124 41.3367 31.4644V31.662C41.3367 31.723 41.3063 31.7517 41.2453 31.7481C40.9019 31.7302 40.637 31.9548 40.4505 32.4219C40.0892 33.3202 39.2532 35.4302 37.9424 38.7519C37.931 38.7804 37.912 38.8052 37.8874 38.8235C37.8629 38.8419 37.8338 38.8531 37.8034 38.8559C37.773 38.8586 37.7424 38.8529 37.7152 38.8393C37.688 38.8257 37.6652 38.8048 37.6492 38.7788C37.608 38.7116 37.5654 38.6296 37.5215 38.5327C36.85 37.0337 35.9826 35.0981 34.9192 32.7258C34.7471 32.3398 34.4499 31.7078 33.8985 31.7562C33.8885 31.7571 33.8783 31.7559 33.8687 31.7526C33.8591 31.7493 33.8503 31.744 33.8428 31.737C33.8353 31.7301 33.8294 31.7216 33.8253 31.7122C33.8212 31.7027 33.8192 31.6925 33.8192 31.6822V31.4738C33.8192 31.4155 33.8483 31.3864 33.9066 31.3864H36.7711C36.8231 31.3864 36.8491 31.4124 36.8491 31.4644V31.6768C36.8491 31.6867 36.8471 31.6965 36.8433 31.7057C36.8396 31.7148 36.834 31.7231 36.827 31.7301C36.82 31.7371 36.8117 31.7426 36.8026 31.7464C36.7934 31.7502 36.7836 31.7521 36.7738 31.7521C36.6384 31.753 36.4972 31.7589 36.3501 31.7696C35.8136 31.81 36.0691 32.3102 36.2036 32.6196C36.8831 34.1715 37.4852 35.5141 38.0097 36.6473Z" fill="#114C6B"/>
<path d="M45.6732 31.3931C46.221 31.3931 46.7558 31.3926 47.2776 31.3917C47.3296 31.3917 47.3556 31.4173 47.3556 31.4684V31.6755C47.3556 31.7212 47.3327 31.7441 47.287 31.7441C46.8526 31.7494 46.3147 31.7575 46.3079 32.3264C46.2999 33.2364 46.2958 34.1468 46.2958 35.0577C46.2958 35.9677 46.2999 36.8777 46.3079 37.7877C46.3147 38.3566 46.8526 38.3646 47.287 38.37C47.3327 38.37 47.3556 38.3929 47.3556 38.4386V38.6457C47.3556 38.6968 47.3296 38.7224 47.2776 38.7224C46.7567 38.7215 46.2219 38.7215 45.6732 38.7224C45.1254 38.7215 44.5911 38.7215 44.0702 38.7224C44.0182 38.7224 43.9922 38.6968 43.9922 38.6457V38.4386C43.9922 38.3929 44.015 38.37 44.0608 38.37C44.4951 38.3646 45.0331 38.3566 45.0384 37.7877C45.0474 36.8777 45.0519 35.9677 45.0519 35.0577C45.0519 34.1468 45.0474 33.2364 45.0384 32.3264C45.0331 31.7589 44.4951 31.7508 44.0608 31.7454C44.015 31.7454 43.9922 31.7225 43.9922 31.6768V31.4697C43.9922 31.4186 44.0177 31.3926 44.0688 31.3917C44.5906 31.3926 45.1254 31.3931 45.6732 31.3931Z" fill="#114C6B"/>
<path d="M60.4334 35.2526V37.9207C60.4333 37.9706 60.4514 38.0187 60.4844 38.0561C60.5173 38.0935 60.5628 38.1176 60.6122 38.1238C61.0506 38.1776 61.5908 38.1933 62.2327 38.1709C63.3799 38.1319 63.8102 37.801 64.2903 36.8139C64.2997 36.7946 64.3142 36.7782 64.3323 36.7668C64.3504 36.7554 64.3713 36.7494 64.3925 36.7494H64.6897C64.7381 36.7494 64.7561 36.7722 64.7435 36.818L64.2527 38.6483C64.2401 38.6931 64.2105 38.7155 64.1639 38.7155H58.3233C58.3159 38.7155 58.3086 38.7141 58.3017 38.7112C58.2949 38.7084 58.2886 38.7042 58.2834 38.699C58.2782 38.6937 58.274 38.6875 58.2712 38.6806C58.2683 38.6738 58.2669 38.6665 58.2669 38.659V38.4331C58.2669 38.3874 58.2897 38.3659 58.3354 38.3686C58.5587 38.3829 58.7792 38.3345 58.9971 38.2233C59.0365 38.2032 59.0685 38.1707 59.0885 38.1305C59.171 37.9602 59.2118 37.78 59.2109 37.5899C59.2082 35.1898 59.2029 33.5312 59.1948 32.6141C59.1867 31.7709 58.9823 31.9013 58.3193 31.7238C58.279 31.713 58.2588 31.6875 58.2588 31.6471V31.4642C58.2588 31.4122 58.2848 31.3862 58.3368 31.3862H64.0617C64.1298 31.3862 64.1639 31.4203 64.1639 31.4884V33.0175C64.1639 33.0623 64.1419 33.0847 64.098 33.0847H63.8559C63.8102 33.0847 63.7833 33.0623 63.7753 33.0175C63.6878 32.4984 63.513 32.0264 62.8971 31.9806C62.2417 31.9331 61.4752 31.9237 60.5974 31.9524C60.5534 31.9538 60.5117 31.9721 60.4811 32.0035C60.4505 32.0349 60.4334 32.0768 60.4334 32.1205V34.5318C60.4334 34.545 60.4385 34.5576 60.4475 34.567C60.4566 34.5763 60.4689 34.5815 60.4818 34.5815C61.1174 34.5851 61.7571 34.582 62.4008 34.5721C63.0074 34.564 63.0948 34.1014 63.1566 33.6281C63.1638 33.5778 63.1925 33.5527 63.2427 33.5527H63.4794C63.5323 33.5527 63.5587 33.5796 63.5587 33.6334V36.1496C63.5587 36.189 63.5395 36.2088 63.5009 36.2088H63.236C63.192 36.2088 63.1669 36.1868 63.1607 36.1429C63.0921 35.691 63.0248 35.2459 62.4708 35.1854C62.304 35.1665 61.6509 35.1629 60.5114 35.1746C60.4594 35.1755 60.4334 35.2015 60.4334 35.2526Z" fill="#114C6B"/>
<path d="M71.3406 35.2015C71.3299 35.2034 71.3199 35.2081 71.3116 35.2151C71.3033 35.2221 71.297 35.2312 71.2933 35.2414C71.2896 35.2517 71.2887 35.2627 71.2906 35.2734C71.2926 35.2841 71.2973 35.2941 71.3043 35.3024C72.5765 36.8713 73.2825 37.7423 73.4224 37.9153C73.6582 38.2067 73.9545 38.3614 74.3113 38.3793C74.3481 38.382 74.3665 38.4017 74.3665 38.4385V38.659C74.3665 38.6976 74.3472 38.7169 74.3086 38.7169H72.5899C72.5686 38.7169 72.5476 38.712 72.5284 38.7027C72.5093 38.6934 72.4926 38.6798 72.4797 38.6631L69.981 35.4288C69.955 35.3956 69.9209 35.379 69.8788 35.379H69.5143C69.4632 35.379 69.4372 35.4046 69.4363 35.4557C69.4139 36.675 69.4247 37.5209 69.4686 37.9933C69.4982 38.3107 70.0711 38.382 70.3333 38.3712C70.3782 38.3686 70.4006 38.3901 70.4006 38.4358V38.6429C70.4006 38.6913 70.3764 38.7155 70.328 38.7155H67.3357C67.2963 38.7155 67.2766 38.6958 67.2766 38.6563V38.4318C67.2765 38.4177 67.282 38.4042 67.2918 38.3942C67.3016 38.3841 67.315 38.3783 67.329 38.378C67.7338 38.3618 68.1762 38.3027 68.1789 37.7567C68.187 35.7627 68.1865 33.9481 68.1776 32.3128C68.1749 31.8367 67.7943 31.7789 67.3451 31.7668C67.3268 31.7665 67.3094 31.7589 67.2966 31.7459C67.2837 31.7328 67.2765 31.7152 67.2766 31.6969V31.4414C67.2766 31.4055 67.2945 31.3871 67.3303 31.3862C68.7783 31.3835 69.7824 31.3858 70.3427 31.393C71.7696 31.4091 73.3121 31.8892 73.1252 33.6684C73.0284 34.5936 72.1771 35.0374 71.3406 35.2015ZM69.5883 34.8693C70.7435 34.8559 71.9969 34.5681 71.8167 33.0928C71.6849 32.0129 70.4678 31.8448 69.6192 31.9726C69.5657 31.9809 69.517 32.0078 69.4817 32.0485C69.4464 32.0892 69.427 32.141 69.4269 32.1945V34.7954C69.4269 34.8393 69.4489 34.863 69.4928 34.8666C69.5107 34.8693 69.5426 34.8702 69.5883 34.8693Z" fill="#114C6B"/>
<path d="M15.9335 60.1641C16.7188 60.3094 17.4993 60.3748 18.2748 60.3605C18.3187 60.3596 18.3407 60.3816 18.3407 60.4264L18.3488 62.0496L0.0806894 62.0482C0.0268965 62.0482 0 62.0218 0 61.9689V60.425C0 60.3784 0.0233103 60.3542 0.0699308 60.3524C0.491309 60.3372 1.07451 60.2596 1.81954 60.1198C3.39299 59.8226 4.56298 58.8529 5.4667 57.5834C6.82229 55.6792 7.79728 53.5678 8.79649 51.3986C10.1548 48.448 11.4767 45.4177 12.7624 42.3076C12.7794 42.2672 12.8099 42.2471 12.8538 42.2471H16.9501C16.9584 42.2472 16.9666 42.2493 16.9739 42.2532C16.9812 42.2571 16.9874 42.2627 16.9921 42.2694C16.9967 42.2762 16.9996 42.2839 17.0005 42.292C17.0014 42.3 17.0003 42.3082 16.9972 42.3157C16.5579 43.4086 15.1467 46.9499 12.7637 52.9398C12.2433 54.2496 11.9474 55.6563 12.0684 57.0374C12.1666 58.1684 12.7946 59.0183 13.814 59.5657C14.4757 59.9198 15.1822 60.1193 15.9335 60.1641Z" fill="#009CF0"/>
<path d="M18.3479 62.0495L18.3399 60.4263C18.3399 60.3814 18.3179 60.3595 18.274 60.3604C17.4984 60.3747 16.718 60.3093 15.9326 60.164C16.7574 59.9632 17.4137 59.6942 17.9014 59.3571C19.3417 58.362 20.4297 56.5411 21.2406 54.9703C21.87 53.7501 22.5276 52.3896 23.2135 50.8888C24.4552 48.1669 25.7005 45.3051 26.9494 42.3034C26.9646 42.2649 26.9933 42.2456 27.0355 42.2456H31.1278C31.1372 42.2455 31.1466 42.2478 31.1549 42.2522C31.1633 42.2567 31.1705 42.2632 31.1758 42.2712C31.1811 42.2791 31.1844 42.2883 31.1854 42.2979C31.1864 42.3075 31.1851 42.3173 31.1816 42.3263C29.2603 47.1237 27.9356 50.436 27.2076 52.2632C26.6186 53.7438 26.1694 55.1223 26.2286 56.7509C26.3469 60.0174 29.9914 60.3657 32.4363 60.3523C32.4856 60.3523 32.5102 60.377 32.5102 60.4263V61.9688C32.5102 62.0217 32.4838 62.0481 32.4309 62.0481L18.3479 62.0495Z" fill="#A4D8F4"/>
<path d="M59.8945 59.3317C60.3975 59.6831 60.9506 59.9239 61.554 60.0539C62.2695 60.209 62.9966 60.3089 63.7353 60.3538C63.7792 60.3565 63.8021 60.3798 63.8039 60.4237L63.8577 62.0496L40.3946 62.0482C40.3399 62.0482 40.3125 62.0209 40.3125 61.9662V60.4277C40.3125 60.3793 40.3367 60.3551 40.3852 60.3551C42.0621 60.3605 43.4473 60.3807 44.8231 59.8427C45.8465 59.442 46.6776 58.5114 46.7663 57.4274C46.8107 56.8828 46.6897 56.0476 46.5646 55.5178C46.2472 54.1721 45.8052 52.8519 45.2386 51.5573C44.2712 49.3464 42.9103 46.2573 41.1557 42.2901C41.1537 42.2854 41.1529 42.2803 41.1534 42.2752C41.1539 42.2702 41.1556 42.2653 41.1583 42.261C41.1611 42.2568 41.1649 42.2533 41.1694 42.2508C41.1739 42.2484 41.1789 42.2471 41.184 42.2471H51.0308C51.0456 42.2471 51.0601 42.2515 51.0725 42.2596C51.0849 42.2677 51.0947 42.2792 51.1007 42.2928C53.7652 48.349 55.1648 51.5313 55.2992 51.8397C56.1528 53.7978 56.8364 55.2555 57.3501 56.2131C57.8235 57.0944 58.3574 57.8748 58.9518 58.5544C59.2243 58.8655 59.5386 59.1246 59.8945 59.3317Z" fill="#009CF0"/>
<path d="M63.8574 62.0496L63.8036 60.4237C63.8018 60.3798 63.779 60.3565 63.735 60.3538C62.9963 60.3089 62.2692 60.209 61.5537 60.0539C60.9504 59.9239 60.3972 59.6831 59.8942 59.3317C61.1476 58.2639 61.0588 57.0939 60.763 55.5716C60.5532 54.4903 60.0435 53.0133 59.2339 51.1404C58.6924 49.8879 57.3928 46.9365 55.3353 42.2861C55.3335 42.2818 55.3328 42.2772 55.3333 42.2726C55.3337 42.2681 55.3352 42.2637 55.3378 42.2598C55.3403 42.256 55.3437 42.2528 55.3477 42.2506C55.3517 42.2484 55.3562 42.2472 55.3608 42.2471H65.1874C65.209 42.247 65.2302 42.2532 65.2483 42.2649C65.2665 42.2766 65.2808 42.2933 65.2896 42.313C68.4034 49.4002 70.1194 53.2863 70.4376 53.9712C71.2405 55.7007 71.8376 56.9836 72.935 58.3164C73.7997 59.3667 74.9226 59.9557 76.2701 60.1655C76.9138 60.2659 77.4661 60.3269 77.9269 60.3484C77.9754 60.3511 77.9996 60.3766 77.9996 60.425V61.9689C77.9996 62.0218 77.9731 62.0482 77.9202 62.0482L63.8574 62.0496Z" fill="#A4D8F4"/>
</svg>
