<svg width="384" height="197" viewBox="0 0 384 197" fill="none" xmlns="http://www.w3.org/2000/svg">
<g clip-path="url(#clip0_4072_2)">
<mask id="mask0_4072_2" style="mask-type:alpha" maskUnits="userSpaceOnUse" x="0" y="0" width="384" height="197">
<path d="M364 0H20C8.9543 0 0 4.28155 0 9.56311V187.437C0 192.718 8.9543 197 20 197H364C375.046 197 384 192.718 384 187.437V9.56311C384 4.28155 375.046 0 364 0Z" fill="#09001B"/>
</mask>
<g mask="url(#mask0_4072_2)">
<path d="M336.056 113.566H153.944V235H336.056V113.566Z" fill="white"/>
<path d="M153.944 120.772L336.056 132.136V113.566H153.944V120.772Z" fill="#E6E6E6"/>
<path d="M346 102.521H144V117.405H346V102.521Z" fill="#F2F2F2"/>
<path d="M346 102.521L336.056 93.2861H153.944L144 102.521H346Z" fill="white"/>
<path d="M194.96 162.287H202.3C203.806 162.287 205.223 162.568 206.551 163.142C207.879 163.716 209.04 164.494 210.023 165.463C211.006 166.445 211.785 167.593 212.346 168.932C212.921 170.259 213.202 171.687 213.202 173.18C213.202 174.672 212.921 176.1 212.346 177.427C211.772 178.753 210.993 179.927 210.023 180.922C209.04 181.916 207.891 182.707 206.551 183.281C205.223 183.855 203.794 184.136 202.3 184.136H194.96V162.275V162.287ZM202.3 181.967C203.513 181.967 204.636 181.738 205.696 181.279C206.742 180.82 207.674 180.195 208.466 179.391C209.257 178.587 209.883 177.656 210.342 176.598C210.802 175.539 211.032 174.404 211.032 173.192C211.032 171.981 210.802 170.858 210.342 169.8C209.883 168.754 209.257 167.823 208.466 167.032C207.674 166.241 206.755 165.616 205.696 165.157C204.649 164.698 203.513 164.468 202.3 164.468H197.143V181.955H202.3V181.967Z" fill="white"/>
<path d="M214.861 173.218C214.861 171.611 215.168 170.106 215.78 168.69C216.393 167.274 217.236 166.037 218.295 164.979C219.355 163.92 220.593 163.078 222.01 162.466C223.427 161.854 224.933 161.548 226.542 161.548C228.15 161.548 229.656 161.854 231.073 162.466C232.49 163.078 233.729 163.92 234.788 164.979C235.848 166.037 236.69 167.274 237.303 168.69C237.916 170.106 238.222 171.611 238.222 173.218C238.222 174.825 237.916 176.33 237.303 177.746C236.69 179.161 235.848 180.399 234.788 181.457C233.729 182.516 232.49 183.358 231.073 183.97C229.656 184.582 228.15 184.888 226.542 184.888C224.933 184.888 223.427 184.582 222.01 183.97C220.593 183.358 219.355 182.516 218.295 181.457C217.236 180.399 216.393 179.161 215.78 177.746C215.168 176.33 214.861 174.825 214.861 173.218ZM217.057 173.205C217.057 174.493 217.312 175.718 217.81 176.878C218.308 178.039 218.997 179.047 219.853 179.914C220.721 180.781 221.729 181.457 222.891 181.967C224.052 182.465 225.265 182.72 226.567 182.72C227.869 182.72 229.082 182.465 230.231 181.967C231.38 181.47 232.375 180.781 233.243 179.914C234.112 179.047 234.788 178.039 235.286 176.878C235.784 175.718 236.039 174.493 236.039 173.205C236.039 171.917 235.784 170.692 235.286 169.545C234.788 168.397 234.099 167.389 233.243 166.522C232.375 165.655 231.38 164.979 230.231 164.468C229.082 163.971 227.869 163.716 226.567 163.716C225.265 163.716 224.052 163.971 222.891 164.468C221.729 164.966 220.721 165.655 219.853 166.522C218.984 167.389 218.308 168.397 217.81 169.545C217.312 170.692 217.057 171.917 217.057 173.205Z" fill="white"/>
<path d="M252.723 162.287H254.906V184.148H252.723L242.536 166.662V184.148H240.354V162.287H242.536L252.723 179.774V162.287Z" fill="white"/>
<path d="M272.408 184.148H270.123L267.366 175.654H261.085L258.366 184.148H256.081L263.089 162.287H265.4L272.408 184.148ZM261.813 173.473H266.689L264.251 165.884L261.813 173.473Z" fill="white"/>
<path d="M269.038 164.468V162.287H283.603V164.468H277.412V184.148H275.229V164.468H269.038Z" fill="white"/>
<path d="M285.16 162.287H299.725V164.468H287.343V173.46H297.53V175.641H287.343V181.955H299.725V184.136H285.16V162.275V162.287Z" fill="white"/>
<path d="M292.13 99.0132H197.87L202.746 95.2122H287.254L292.13 99.0132Z" fill="#E6E6E6"/>
</g>
<path d="M283.214 74.2861C295.246 56.7711 290.801 32.8181 273.286 20.7861C255.771 8.7541 231.819 13.1991 219.786 30.7141C207.754 48.2291 212.199 72.1811 229.714 84.2141C247.229 96.2461 271.181 91.8011 283.214 74.2861Z" fill="#FFB400"/>
<path opacity="0.1" d="M253.156 10.581C230.009 9.68202 210.516 27.72 209.618 50.867C208.72 74.014 226.757 93.507 249.904 94.405C273.052 95.303 292.545 77.266 293.442 54.119C294.34 30.972 276.304 11.479 253.156 10.581ZM250.177 87.365C230.917 86.618 215.91 70.399 216.658 51.14C217.405 31.88 233.624 16.873 252.883 17.621C272.143 18.368 287.15 34.586 286.402 53.846C285.655 73.106 269.436 88.112 250.177 87.365Z" fill="#2B2A2A"/>
<path d="M253.324 6.282C227.802 5.292 206.31 25.179 205.32 50.701C204.329 76.223 224.216 97.715 249.738 98.705C275.26 99.695 296.752 79.809 297.742 54.287C298.732 28.765 278.846 7.273 253.324 6.282ZM250.039 90.943C228.804 90.119 212.258 72.236 213.081 51.002C213.905 29.767 231.788 13.221 253.022 14.044C274.257 14.868 290.804 32.75 289.98 53.986C289.156 75.22 271.274 91.766 250.039 90.943Z" fill="#FFDB19"/>
<path d="M238.522 63.5451C238.066 63.1971 238.011 62.5061 237.928 61.8801C237.719 60.2861 238.753 59.1301 240.328 59.0121C242.689 58.8361 245.015 60.7271 247.102 61.8371C248.817 62.7501 250.732 63.2531 252.847 63.3471C255.112 63.4491 256.953 62.9791 258.37 61.9381C259.786 60.8971 260.535 59.4791 260.616 57.6841C260.697 55.8631 260.205 54.5431 259.14 53.7251C258.073 52.9061 256.206 52.4371 253.535 52.3171L251.772 52.2381C247.414 52.0421 244.132 50.9831 241.928 49.0601C239.723 47.1371 238.699 44.4441 238.854 40.9821C239.006 37.5981 240.24 35.0191 242.557 33.2481C244.873 31.4761 248.051 30.6811 252.089 30.8621C253.734 30.9361 255.399 31.2871 257.084 31.9151C260.587 33.2221 266.342 36.3601 264.937 39.8381C263.334 43.8041 257.379 37.6881 255.232 36.6491C253.975 36.0401 252.482 35.6971 250.751 35.6201C248.743 35.5291 247.1 35.9901 245.824 36.9981C244.548 38.0071 243.873 39.3331 243.799 40.9731C243.727 42.5891 244.305 43.7711 245.535 44.5201C246.764 45.2691 249.46 45.7891 253.622 46.0781C258.059 46.4051 261.266 47.4801 263.239 49.3031C265.212 51.1261 266.118 53.8461 265.956 57.4611C265.801 60.9231 264.543 63.6401 262.186 65.6161C259.827 67.5921 256.726 68.4931 252.88 68.3201C251.662 68.2651 250.312 68.0701 248.829 67.7341C246.069 67.1091 241.669 65.9461 238.522 63.5451Z" fill="#F8D600"/>
<path d="M251.209 77.3851L251.161 77.3831C249.833 77.3241 248.813 76.0311 248.882 74.4951L251.009 27.1051C251.078 25.5701 252.21 24.3731 253.537 24.4331L253.586 24.4351C254.913 24.4951 255.933 25.7871 255.865 27.3231L253.738 74.7141C253.669 76.2491 252.537 77.4451 251.209 77.3851Z" fill="#F8D600"/>
</g>
<defs>
<clipPath id="clip0_4072_2">
<rect width="384" height="197" fill="white"/>
</clipPath>
</defs>
</svg>
