<svg width="56" height="56" viewBox="0 0 56 56" fill="none" xmlns="http://www.w3.org/2000/svg">
<rect width="56" height="56" rx="10" fill="white"/>
<path d="M21.0376 40.231C21.0161 40.4446 21.0346 40.6676 21.1125 40.8887C21.3026 41.4218 21.7488 41.856 22.2773 42.0196C22.7684 42.1749 23.257 42.0716 23.4052 41.9103L24.4298 40.8109C24.7263 40.494 24.8012 39.9874 24.627 39.4958C24.1983 38.6743 23.6238 38.3779 22.8882 38.2451L21.0376 40.231Z" fill="#09001B"/>
<path d="M19.6671 34.7335L17.8764 36.6539C17.5126 37.0497 17.4083 37.6581 17.6114 38.241C17.827 38.8568 18.3416 39.3579 18.9574 39.5451C19.5404 39.7198 20.1253 39.584 20.4916 39.1942L22.1495 37.416C22.5159 37.0212 22.6177 36.4159 22.4146 35.8329C22.199 35.2141 21.6814 34.715 21.0685 34.5288C20.5794 34.3726 20.0055 34.3666 19.6671 34.7335Z" fill="#09001B"/>
<path d="M16.1168 31.5735L14.4634 33.3487C14.099 33.7415 13.9972 34.3519 14.1984 34.9368C14.414 35.5507 14.9285 36.0517 15.5444 36.2389C16.1263 36.4161 16.7172 36.2778 16.9014 36.0827L18.737 34.1128C19.1033 33.7171 19.2051 33.1087 19.002 32.5268C18.7854 31.9089 18.2708 31.4098 17.655 31.2247C17.0885 31.04 16.4617 31.2042 16.1168 31.5735Z" fill="#09001B"/>
<path d="M12.8823 28.0739L11.0497 30.0448C10.6834 30.4396 10.5815 31.045 10.7847 31.6249C10.9983 32.2457 11.5158 32.7448 12.1317 32.932C12.7136 33.1056 13.3035 32.9709 13.4857 32.7733L15.3233 30.8034V30.8014C15.6896 30.4116 15.7914 29.8052 15.5883 29.2233C15.3757 28.6025 14.8581 28.1034 14.2423 27.9182C13.7716 27.756 13.2022 27.7281 12.8823 28.0739Z" fill="#09001B"/>
<path d="M36.6748 16.3201C35.4895 16.9828 33.842 17.1016 32.2375 17.2169C31.0237 17.2998 29.7715 17.3876 28.8717 17.72L23.8684 19.5661C23.8345 19.5795 23.8 19.5875 23.7641 19.5925C23.5226 19.6305 23.299 19.6629 23.0983 19.6908C21.8801 19.8625 21.7393 19.9149 21.5991 20.2758C21.4713 20.6091 21.6116 21.0898 21.9579 21.498C22.2404 21.8334 23.3459 22.8805 25.6202 22.3419L28.4694 21.9656C30.065 21.76 31.3441 22.8001 32.3657 23.6396L40.0281 29.7692L40.0341 29.7662C41.5488 29.1324 43.1268 28.3079 44.4684 26.6919L36.6748 16.3201Z" fill="#09001B"/>
<path d="M26.1317 15.9478C25.6775 15.9897 25.157 16.0471 24.611 16.104C21.5911 16.4264 19.9167 16.5531 19.0648 16.3954L11.2247 26.6001C11.5132 26.8731 11.7523 27.1566 11.9449 27.4635C12.6002 26.7927 13.5904 26.5532 14.5546 26.8446C15.5008 27.1301 16.2909 27.8972 16.6213 28.8489C16.7615 29.2517 16.8054 29.6649 16.7695 30.0607C17.1563 30.0063 17.565 30.0288 17.9673 30.1515C18.911 30.435 19.7041 31.2041 20.032 32.1558C20.1742 32.5566 20.2191 32.9688 20.1852 33.3646C20.572 33.3102 20.9807 33.3332 21.383 33.4584C22.3247 33.7439 23.1143 34.511 23.4447 35.4577C23.6523 36.0581 23.6603 36.676 23.4916 37.23C23.5879 37.2484 23.6867 37.2719 23.785 37.3028C24.63 37.5648 25.3476 38.2591 25.6566 39.115C25.951 39.9435 25.8233 40.8138 25.3397 41.4387L26.7306 42.5511C27.071 42.8211 27.567 42.8506 28.0302 42.626C28.5323 42.3824 28.9116 41.8879 29.0234 41.3344C29.0703 41.1033 29.0548 40.8792 29.0019 40.6716L27.2377 39.2602C27.0006 39.0701 26.9587 38.7192 27.1438 38.4757C27.331 38.2341 27.6744 38.1892 27.9129 38.3793L30.034 40.0792C30.2446 40.2479 30.848 40.2928 31.4015 40.0323C31.9834 39.7543 32.4231 39.1814 32.5449 38.542C32.6616 37.9377 32.4745 37.3517 32.0583 37.0164L30.1398 35.4812C29.9007 35.291 29.8588 34.9392 30.046 34.6986C30.2311 34.4541 30.5765 34.4092 30.8131 34.6023L33.6019 36.8327C34.0211 37.1661 34.6235 37.212 35.18 36.9525C35.7569 36.6765 36.1966 36.1045 36.3214 35.4582C36.4382 34.8538 36.251 34.2699 35.8303 33.9316L33.0404 31.7042C32.8014 31.512 32.7595 31.1612 32.9466 30.9156C33.1338 30.6751 33.4771 30.6331 33.7167 30.8228C33.7167 30.8228 37.9529 34.21 37.9559 34.21C38.1665 34.3757 38.7669 34.4226 39.3178 34.1591C39.9008 33.8871 40.3375 33.3152 40.4642 32.6709C40.579 32.0655 40.3919 31.4776 39.9731 31.1452L31.682 24.51C30.7307 23.7299 29.748 22.9219 28.6066 23.0751L25.8148 23.4394C23.9328 23.8916 22.1575 23.4444 21.1309 22.2307C20.5121 21.4995 20.3015 20.5952 20.5795 19.868C20.9692 18.8594 21.7159 18.7551 22.9481 18.5814C23.1322 18.5579 23.3304 18.529 23.5485 18.4946L28.5003 16.6679C28.8222 16.5482 29.1786 16.4653 29.5474 16.3919C28.2742 15.8994 27.3514 15.8699 26.1317 15.9478Z" fill="#09001B"/>
<path d="M15.3706 14.0137C14.4688 13.9453 13.6453 14.6251 12.46 16.1687L9.42859 20.1174C8.33211 21.5418 7.92137 22.4277 8.0122 23.1783C8.08507 23.7951 8.51428 24.4005 8.93999 24.7419L10.3778 25.8903L18.1859 15.7275L17.1753 14.9185C16.4806 14.3646 15.9116 14.0556 15.3706 14.0137Z" fill="#09001B"/>
<path d="M40.408 14.0033C39.867 14.0373 39.2931 14.3397 38.5929 14.8857L37.5713 15.6783L45.2711 25.9238L46.2662 25.1498C47.1271 24.482 47.5663 23.8846 47.6467 23.2682C47.746 22.5196 47.3482 21.6268 46.2692 20.1839L43.2872 16.1973C42.1254 14.6377 41.3124 13.9455 40.408 14.0033Z" fill="#09001B"/>
</svg>
