<svg width="56" height="45" viewBox="0 0 56 45" fill="none" xmlns="http://www.w3.org/2000/svg">
<path d="M21.0307 9.47035C21.0277 9.46327 21.0228 9.45721 21.0164 9.45295C21.0101 9.44868 21.0026 9.44641 20.9949 9.44641C20.9873 9.44641 20.9798 9.44868 20.9734 9.45295C20.9671 9.45721 20.9621 9.46327 20.9592 9.47035L16.5893 19.8864C16.5745 19.9218 16.5478 19.9395 16.5091 19.9395H13.6174C13.6145 19.9394 13.6116 19.9386 13.609 19.9371C13.6065 19.9357 13.6043 19.9336 13.6027 19.9312C13.6011 19.9287 13.6001 19.9259 13.5998 19.923C13.5995 19.9201 13.5999 19.9171 13.601 19.9144C18.5065 8.3378 21.2427 1.8817 21.8098 0.546061C21.8942 0.347165 22.0609 0.191394 22.31 0.0787506C22.785 -0.135595 23.3614 0.10675 23.5671 0.574062C28.5228 11.8269 31.3601 18.2701 32.0791 19.9038C32.0809 19.9076 32.0817 19.9119 32.0814 19.9161C32.0811 19.9204 32.0797 19.9245 32.0774 19.928C32.0751 19.9316 32.0719 19.9345 32.0681 19.9365C32.0644 19.9385 32.0602 19.9395 32.0559 19.9395H25.474C25.4399 19.9395 25.416 19.9237 25.4025 19.8922L21.0307 9.47035Z" fill="#009CF0"/>
<path d="M31.1592 9.42787L29.8828 12.4712C29.8813 12.4747 29.8787 12.4777 29.8755 12.4799C29.8724 12.482 29.8686 12.4832 29.8648 12.4833C29.8609 12.4834 29.8571 12.4824 29.8538 12.4804C29.8505 12.4785 29.8478 12.4756 29.8461 12.4722L28.3708 9.18456C28.3573 9.15431 28.357 9.12405 28.3698 9.0938C28.9408 7.74207 30.1013 5.00193 31.8515 0.873373C31.997 0.530292 32.1325 0.308223 32.258 0.207165C32.6577 -0.114353 33.3316 -0.0486973 33.6406 0.38289C33.6824 0.441464 33.7732 0.629741 33.9129 0.947719C36.0821 5.87186 38.8615 12.1831 42.2511 19.8815C42.2685 19.9208 42.2559 19.9404 42.2134 19.9404H35.6267C35.6204 19.9404 35.6142 19.9386 35.6089 19.9352C35.6036 19.9318 35.5993 19.9269 35.5967 19.9211L31.1949 9.42787C31.1935 9.42433 31.191 9.4213 31.1878 9.41917C31.1847 9.41703 31.1809 9.4159 31.1771 9.4159C31.1733 9.4159 31.1695 9.41703 31.1663 9.41917C31.1631 9.4213 31.1607 9.42433 31.1592 9.42787Z" fill="#A4D8F4"/>
<path d="M39.0253 22.5297L39.0359 22.4901C39.0455 22.4541 39.069 22.436 39.1064 22.436H39.2435C39.2802 22.436 39.3004 22.4544 39.3043 22.4911L39.4733 24.1353C39.4765 24.1695 39.461 24.1865 39.4269 24.1865H39.23C39.1978 24.1865 39.1788 24.1704 39.173 24.1382C39.032 23.3716 38.3523 22.7016 37.5191 22.8918C37.3308 22.9352 37.1599 23.0839 37.0923 23.2654C36.8818 23.8331 37.4206 24.2599 37.8599 24.5158C38.1837 24.7044 38.4157 24.8382 38.556 24.9174C39.4723 25.433 40.069 26.4207 39.2995 27.3505C38.7472 28.0177 37.7344 28.0109 36.9562 27.6817C36.8133 27.6218 36.569 27.6025 36.5584 27.814C36.5564 27.8552 36.5349 27.8787 36.4937 27.8845L36.373 27.9018C36.3221 27.9089 36.2932 27.8874 36.2861 27.8371L36.0544 26.2025C36.0505 26.1729 36.0637 26.1565 36.094 26.1533L36.2735 26.1349C36.3064 26.1311 36.3254 26.1456 36.3305 26.1784C36.3427 26.2537 36.4525 26.4693 36.6597 26.8253C36.8947 27.2295 37.242 27.4606 37.7015 27.5185C38.4682 27.6151 39.005 27.0155 38.6468 26.2653C38.5934 26.1533 38.4592 26.0143 38.2442 25.8482C37.7537 25.4687 37.212 25.2573 36.7322 24.8325C36.4258 24.5602 36.2751 24.2094 36.2803 23.78C36.2919 22.9033 37.0875 22.3298 37.9159 22.4592C38.1856 22.5017 38.4521 22.5764 38.7153 22.6832C38.7456 22.6956 38.7782 22.7013 38.8109 22.7001C38.8435 22.699 38.8756 22.6908 38.9049 22.6763C38.9342 22.6618 38.9601 22.6412 38.9809 22.6159C39.0016 22.5907 39.0167 22.5613 39.0253 22.5297Z" fill="#114C6B"/>
<path d="M4.01284 26.1602C3.78176 26.6449 3.65013 26.9941 3.61795 27.2078C3.57257 27.5129 3.84677 27.5621 4.08429 27.5476C4.11969 27.5451 4.1374 27.5618 4.1374 27.5979V27.7446C4.1374 27.7794 4.12034 27.7968 4.08622 27.7968H2.53657C2.51017 27.7968 2.49698 27.7832 2.49698 27.7562V27.6056C2.49698 27.5721 2.51371 27.5551 2.54719 27.5544C2.80015 27.5486 2.99036 27.3999 3.11781 27.1083C3.72158 25.7322 4.36976 24.2082 5.06236 22.5366C5.07425 22.5081 5.09423 22.4837 5.11982 22.4664C5.14541 22.4491 5.17551 22.4396 5.2064 22.4392C5.2373 22.4388 5.26763 22.4474 5.29368 22.4641C5.31972 22.4807 5.34034 22.5046 5.35298 22.5327C6.20071 24.4554 6.8357 25.8995 7.25795 26.865C7.40471 27.201 7.53312 27.5631 7.90871 27.5486C7.95441 27.5467 7.97726 27.5689 7.97726 27.6152V27.735C7.97726 27.7755 7.95699 27.7958 7.91644 27.7958H5.95933C5.92071 27.7958 5.9014 27.7765 5.9014 27.7379V27.594C5.90145 27.5869 5.90303 27.5799 5.90603 27.5735C5.90904 27.5671 5.91339 27.5614 5.9188 27.5568C5.92421 27.5522 5.93055 27.5488 5.93737 27.5469C5.9442 27.545 5.95136 27.5446 5.95836 27.5457C6.1534 27.5773 6.30402 27.5412 6.41023 27.4376C6.43469 27.4144 6.44627 27.3858 6.44499 27.3516C6.43147 27.0031 6.17754 26.5396 6.00761 26.165C5.99344 26.1341 5.96931 26.1187 5.93519 26.1187H4.07946C4.04857 26.1187 4.02636 26.1325 4.01284 26.1602ZM5.01409 25.7083C5.38613 25.7083 5.64618 25.7058 5.79423 25.7006C5.82448 25.6993 5.83381 25.6848 5.82223 25.6572L5.04305 23.7966C5.03919 23.787 5.03243 23.7808 5.02278 23.7783C5.01956 23.777 5.01666 23.7763 5.01409 23.7763C5.01216 23.7763 5.00926 23.777 5.0054 23.7783C4.99574 23.7808 4.98898 23.787 4.98512 23.7966L4.20595 25.6572C4.19436 25.6848 4.20369 25.699 4.23395 25.6996C4.38199 25.7054 4.64204 25.7083 5.01409 25.7083Z" fill="#114C6B"/>
<path d="M11.3217 26.1187C11.2908 26.1187 11.2686 26.1325 11.2551 26.1602C11.024 26.6449 10.8921 26.9941 10.8592 27.2078C10.8139 27.5129 11.0881 27.5621 11.3256 27.5476C11.361 27.5451 11.3787 27.5618 11.3787 27.5979V27.7446C11.3787 27.7794 11.3616 27.7968 11.3275 27.7968H9.77787C9.75148 27.7968 9.73828 27.7832 9.73828 27.7562V27.6056C9.73828 27.5721 9.75502 27.5551 9.78849 27.5544C10.0415 27.5486 10.2317 27.3999 10.3591 27.1083C10.9635 25.7322 11.612 24.2082 12.3046 22.5366C12.3165 22.5081 12.3365 22.4837 12.3621 22.4664C12.3877 22.4491 12.4178 22.4396 12.4487 22.4392C12.4796 22.4388 12.5099 22.4474 12.5359 22.4641C12.562 22.4807 12.5826 22.5046 12.5953 22.5327C13.443 24.4561 14.078 25.9005 14.5002 26.866C14.647 27.202 14.7754 27.5641 15.151 27.5496C15.1967 27.5476 15.2195 27.5699 15.2195 27.6162V27.7359C15.2195 27.7765 15.1993 27.7968 15.1587 27.7968L13.2006 27.7958C13.162 27.7958 13.1427 27.7765 13.1427 27.7379V27.594C13.1428 27.5869 13.1443 27.5799 13.1473 27.5735C13.1503 27.5671 13.1547 27.5614 13.1601 27.5568C13.1655 27.5522 13.1719 27.5488 13.1787 27.5469C13.1855 27.545 13.1927 27.5446 13.1997 27.5457C13.3947 27.5779 13.5456 27.5422 13.6525 27.4385C13.677 27.4154 13.6885 27.3867 13.6873 27.3526C13.6737 27.0041 13.4198 26.5396 13.2499 26.165C13.2357 26.1341 13.2116 26.1187 13.1775 26.1187H11.3217ZM12.2554 25.7083C12.6274 25.7083 12.8875 25.7058 13.0355 25.7006C13.0658 25.6993 13.0751 25.6848 13.0635 25.6572L12.2853 23.7976C12.2815 23.7879 12.2747 23.7815 12.265 23.7783C12.2612 23.7776 12.2583 23.7773 12.2564 23.7773C12.2538 23.7773 12.2509 23.7776 12.2477 23.7783C12.238 23.7815 12.2313 23.7879 12.2274 23.7976L11.4473 25.6572C11.4357 25.6842 11.4453 25.6984 11.4762 25.6996C11.6236 25.7054 11.8833 25.7083 12.2554 25.7083Z" fill="#114C6B"/>
<path d="M22.2917 25.1697C22.2907 26.8062 21.1022 27.6906 19.5564 27.7814C19.194 27.8026 18.3475 27.8081 17.017 27.7978C16.9926 27.7978 16.9804 27.7853 16.9804 27.7602V27.5989C16.9804 27.5674 16.9958 27.551 17.0267 27.5497C17.2536 27.541 17.5973 27.5313 17.6398 27.2301C17.6968 26.8168 17.6688 26.2337 17.6688 25.1687C17.6688 24.1037 17.6977 23.5215 17.6398 23.1073C17.5983 22.8061 17.2546 22.7964 17.0277 22.7877C16.9968 22.7864 16.9813 22.77 16.9813 22.7385V22.5772C16.9813 22.5521 16.9935 22.5396 17.018 22.5396C18.3485 22.5299 19.1949 22.536 19.5573 22.5579C21.1031 22.6487 22.2917 23.5331 22.2917 25.1697ZM18.557 23.1546L18.5435 27.2079C18.5434 27.2354 18.5487 27.2627 18.5591 27.2881C18.5695 27.3136 18.5848 27.3368 18.6042 27.3563C18.6236 27.3759 18.6466 27.3914 18.672 27.402C18.6973 27.4127 18.7246 27.4182 18.7521 27.4184L19.2619 27.4203C19.5346 27.4212 19.8049 27.3685 20.0572 27.2653C20.3095 27.1621 20.5389 27.0104 20.7324 26.8188C20.9259 26.6272 21.0796 26.3995 21.1848 26.1486C21.29 25.8978 21.3446 25.6288 21.3455 25.357L21.3474 25.0248C21.3492 24.4758 21.1321 23.9486 20.7439 23.5591C20.3557 23.1696 19.8281 22.9498 19.2773 22.948L18.7675 22.9461C18.74 22.9459 18.7127 22.9512 18.6873 22.9617C18.6618 22.9721 18.6386 22.9874 18.6191 23.0068C18.5995 23.0261 18.584 23.0491 18.5734 23.0745C18.5627 23.0999 18.5572 23.1271 18.557 23.1546Z" fill="#114C6B"/>
<path d="M27.2898 26.311C27.304 26.3413 27.3175 26.341 27.3304 26.3101C27.7011 25.3851 28.0728 24.4495 28.4455 23.5033C28.6299 23.035 28.6164 22.812 28.0419 22.7956C28.0059 22.7943 27.9879 22.7756 27.9879 22.7396V22.589C27.9879 22.5523 28.0062 22.5339 28.0429 22.5339H29.6225C29.6598 22.5339 29.6785 22.5526 29.6785 22.5899V22.7319C29.6785 22.7756 29.6566 22.7962 29.6128 22.7937C29.3663 22.7808 29.1761 22.942 29.0422 23.2774C28.7828 23.9224 28.1826 25.4373 27.2415 27.8221C27.2334 27.8425 27.2197 27.8603 27.2021 27.8735C27.1844 27.8866 27.1635 27.8947 27.1417 27.8967C27.1199 27.8987 27.098 27.8946 27.0784 27.8848C27.0589 27.875 27.0425 27.86 27.031 27.8414C27.0014 27.7931 26.9709 27.7342 26.9393 27.6647C26.4572 26.5885 25.8344 25.1988 25.071 23.4956C24.9475 23.2185 24.7341 22.7647 24.3382 22.7995C24.331 22.8001 24.3237 22.7993 24.3168 22.7969C24.3099 22.7945 24.3036 22.7907 24.2982 22.7857C24.2929 22.7807 24.2886 22.7746 24.2857 22.7679C24.2827 22.7611 24.2812 22.7538 24.2813 22.7464V22.5967C24.2813 22.5549 24.3022 22.5339 24.344 22.5339H26.4006C26.4379 22.5339 26.4566 22.5526 26.4566 22.5899V22.7425C26.4566 22.7496 26.4552 22.7566 26.4524 22.7632C26.4497 22.7697 26.4457 22.7757 26.4407 22.7807C26.4357 22.7857 26.4297 22.7897 26.4232 22.7924C26.4166 22.7952 26.4096 22.7966 26.4025 22.7966C26.3053 22.7972 26.2039 22.8014 26.0984 22.8091C25.7131 22.8381 25.8966 23.1972 25.9931 23.4193C26.481 24.5335 26.9133 25.4974 27.2898 26.311Z" fill="#114C6B"/>
<path d="M32.7909 22.5388C33.1842 22.5388 33.5681 22.5385 33.9427 22.5378C33.9801 22.5378 33.9987 22.5562 33.9987 22.5929V22.7416C33.9987 22.7744 33.9823 22.7908 33.9495 22.7908C33.6376 22.7947 33.2514 22.8005 33.2466 23.2089C33.2408 23.8622 33.2379 24.5159 33.2379 25.1698C33.2379 25.8232 33.2408 26.4765 33.2466 27.1298C33.2514 27.5383 33.6376 27.5441 33.9495 27.5479C33.9823 27.5479 33.9987 27.5643 33.9987 27.5972V27.7459C33.9987 27.7825 33.9801 27.8009 33.9427 27.8009C33.5688 27.8002 33.1848 27.8002 32.7909 27.8009C32.3976 27.8002 32.014 27.8002 31.64 27.8009C31.6027 27.8009 31.584 27.7825 31.584 27.7459V27.5972C31.584 27.5643 31.6004 27.5479 31.6332 27.5479C31.9451 27.5441 32.3313 27.5383 32.3352 27.1298C32.3416 26.4765 32.3448 25.8232 32.3448 25.1698C32.3448 24.5159 32.3416 23.8622 32.3352 23.2089C32.3313 22.8014 31.9451 22.7956 31.6332 22.7918C31.6004 22.7918 31.584 22.7754 31.584 22.7425V22.5938C31.584 22.5572 31.6023 22.5385 31.639 22.5378C32.0136 22.5385 32.3976 22.5388 32.7909 22.5388Z" fill="#114C6B"/>
<path d="M43.3884 25.3098V27.2254C43.3883 27.2612 43.4014 27.2957 43.425 27.3226C43.4487 27.3494 43.4813 27.3667 43.5168 27.3712C43.8316 27.4098 44.2194 27.4211 44.6803 27.405C45.5038 27.377 45.8128 27.1395 46.1575 26.4308C46.1642 26.4169 46.1747 26.4051 46.1876 26.397C46.2006 26.3888 46.2156 26.3844 46.2309 26.3844H46.4443C46.479 26.3844 46.4919 26.4008 46.4829 26.4337L46.1305 27.7477C46.1215 27.7799 46.1002 27.796 46.0667 27.796H41.8735C41.8682 27.796 41.8629 27.795 41.858 27.7929C41.8531 27.7909 41.8486 27.7879 41.8448 27.7841C41.8411 27.7804 41.8381 27.7759 41.836 27.771C41.834 27.7661 41.8329 27.7608 41.8329 27.7555V27.5933C41.8329 27.5604 41.8494 27.545 41.8822 27.5469C42.0425 27.5572 42.2008 27.5224 42.3572 27.4426C42.3855 27.4282 42.4085 27.4048 42.4229 27.376C42.4821 27.2537 42.5114 27.1243 42.5107 26.9879C42.5088 25.2647 42.5049 24.0739 42.4992 23.4155C42.4934 22.8101 42.3466 22.9037 41.8706 22.7763C41.8416 22.7686 41.8271 22.7502 41.8271 22.7212V22.5899C41.8271 22.5526 41.8458 22.5339 41.8832 22.5339H45.9934C46.0423 22.5339 46.0667 22.5584 46.0667 22.6073V23.7051C46.0667 23.7373 46.051 23.7534 46.0194 23.7534H45.8456C45.8128 23.7534 45.7935 23.7373 45.7877 23.7051C45.725 23.3324 45.5994 22.9935 45.1572 22.9607C44.6867 22.9266 44.1363 22.9198 43.5062 22.9404C43.4746 22.9414 43.4446 22.9546 43.4227 22.9771C43.4007 22.9996 43.3884 23.0298 43.3884 23.0611V24.7923C43.3884 24.8018 43.3921 24.8108 43.3986 24.8175C43.4051 24.8242 43.4139 24.828 43.4232 24.828C43.8795 24.8306 44.3388 24.8283 44.8009 24.8213C45.2364 24.8155 45.2992 24.4833 45.3436 24.1435C45.3487 24.1074 45.3693 24.0894 45.4054 24.0894H45.5753C45.6133 24.0894 45.6323 24.1087 45.6323 24.1473V25.9538C45.6323 25.9821 45.6184 25.9963 45.5907 25.9963H45.4005C45.369 25.9963 45.351 25.9805 45.3465 25.949C45.2972 25.6246 45.2489 25.305 44.8512 25.2615C44.7314 25.248 44.2625 25.2454 43.4444 25.2538C43.4071 25.2544 43.3884 25.2731 43.3884 25.3098Z" fill="#114C6B"/>
<path d="M51.2187 25.2729C51.211 25.2743 51.2038 25.2777 51.1979 25.2827C51.1919 25.2877 51.1874 25.2943 51.1847 25.3016C51.1821 25.3089 51.1814 25.3168 51.1828 25.3245C51.1842 25.3322 51.1876 25.3394 51.1926 25.3453C52.106 26.4718 52.6129 27.0971 52.7133 27.2213C52.8826 27.4305 53.0953 27.5416 53.3515 27.5544C53.3779 27.5564 53.3911 27.5705 53.3911 27.5969V27.7553C53.3911 27.783 53.3773 27.7968 53.3496 27.7968H52.1156C52.1003 27.7968 52.0852 27.7933 52.0715 27.7866C52.0578 27.7799 52.0458 27.7702 52.0365 27.7582L50.2425 25.4361C50.2239 25.4123 50.1994 25.4004 50.1692 25.4004H49.9075C49.8708 25.4004 49.8522 25.4187 49.8515 25.4554C49.8354 26.3308 49.8431 26.9381 49.8747 27.2773C49.8959 27.5052 50.3072 27.5564 50.4955 27.5487C50.5277 27.5467 50.5438 27.5622 50.5438 27.595V27.7437C50.5438 27.7784 50.5264 27.7958 50.4916 27.7958H48.3434C48.315 27.7958 48.3009 27.7817 48.3009 27.7533V27.5921C48.3009 27.582 48.3048 27.5723 48.3119 27.5651C48.3189 27.5579 48.3285 27.5537 48.3385 27.5535C48.6292 27.5419 48.9468 27.4994 48.9487 27.1074C48.9545 25.6759 48.9542 24.3731 48.9478 23.199C48.9459 22.8572 48.6726 22.8157 48.3501 22.807C48.337 22.8067 48.3245 22.8013 48.3152 22.7919C48.306 22.7826 48.3009 22.7699 48.3009 22.7568V22.5733C48.3009 22.5476 48.3138 22.5344 48.3395 22.5337C49.379 22.5318 50.1 22.5334 50.5023 22.5386C51.5267 22.5502 52.6341 22.8949 52.4999 24.1722C52.4304 24.8365 51.8192 25.1551 51.2187 25.2729ZM49.9606 25.0344C50.79 25.0248 51.6899 24.8182 51.5605 23.759C51.4659 22.9837 50.5921 22.863 49.9828 22.9547C49.9444 22.9607 49.9094 22.98 49.8841 23.0092C49.8588 23.0384 49.8448 23.0756 49.8447 23.114V24.9813C49.8447 25.0129 49.8605 25.0299 49.8921 25.0325C49.9049 25.0344 49.9278 25.0351 49.9606 25.0344Z" fill="#114C6B"/>
<path d="M11.4395 43.1949C12.0033 43.2992 12.5637 43.3462 13.1204 43.3359C13.152 43.3352 13.1677 43.351 13.1677 43.3832L13.1735 44.5486L0.0579312 44.5476C0.0193104 44.5476 0 44.5286 0 44.4906V43.3822C0 43.3487 0.0167357 43.3314 0.050207 43.3301C0.352736 43.3191 0.771449 43.2635 1.30635 43.163C2.436 42.9497 3.27601 42.2535 3.92483 41.3421C4.89808 39.9749 5.59808 38.459 6.31546 36.9017C7.29063 34.7833 8.23974 32.6077 9.16277 30.3747C9.175 30.3458 9.19689 30.3313 9.22843 30.3313H12.1694C12.1754 30.3314 12.1812 30.3329 12.1864 30.3357C12.1917 30.3385 12.1962 30.3425 12.1995 30.3474C12.2028 30.3522 12.2049 30.3578 12.2055 30.3635C12.2062 30.3693 12.2054 30.3752 12.2032 30.3805C11.8878 31.1652 10.8746 33.7077 9.16374 38.0081C8.79008 38.9486 8.57767 39.9585 8.66457 40.9501C8.73505 41.7621 9.18595 42.3723 9.91781 42.7652C10.3928 43.0195 10.9001 43.1627 11.4395 43.1949Z" fill="#009CF0"/>
<path d="M13.1735 44.5488L13.1677 43.3834C13.1677 43.3512 13.152 43.3355 13.1204 43.3361C12.5636 43.3464 12.0033 43.2994 11.4395 43.1951C12.0316 43.051 12.5028 42.8579 12.853 42.6158C13.887 41.9013 14.6681 40.594 15.2504 39.4663C15.7022 38.5903 16.1744 37.6135 16.6668 36.536C17.5583 34.5817 18.4523 32.5271 19.349 30.3721C19.3599 30.3444 19.3805 30.3306 19.4108 30.3306H22.3489C22.3557 30.3305 22.3624 30.3321 22.3684 30.3353C22.3744 30.3385 22.3795 30.3432 22.3833 30.3489C22.3871 30.3546 22.3895 30.3612 22.3902 30.3681C22.391 30.375 22.39 30.382 22.3875 30.3885C21.0081 33.8328 20.057 36.2109 19.5344 37.5227C19.1115 38.5858 18.789 39.5754 18.8315 40.7447C18.9164 43.0899 21.533 43.34 23.2883 43.3303C23.3237 43.3303 23.3414 43.348 23.3414 43.3834V44.4909C23.3414 44.5288 23.3224 44.5478 23.2844 44.5478L13.1735 44.5488Z" fill="#A4D8F4"/>
<path d="M43.0012 42.5972C43.3623 42.8496 43.7595 43.0224 44.1927 43.1157C44.7063 43.2271 45.2283 43.2989 45.7587 43.331C45.7903 43.333 45.8067 43.3497 45.808 43.3812L45.8466 44.5486L29.0012 44.5476C28.9619 44.5476 28.9423 44.528 28.9423 44.4887V43.3841C28.9423 43.3494 28.9597 43.332 28.9944 43.332C30.1984 43.3359 31.1929 43.3504 32.1806 42.9641C32.9154 42.6764 33.5121 42.0083 33.5758 41.2301C33.6077 40.839 33.5208 40.2395 33.431 39.859C33.2031 38.8929 32.8858 37.9451 32.479 37.0156C31.7844 35.4283 30.8073 33.2105 29.5477 30.3622C29.5462 30.3588 29.5457 30.3552 29.546 30.3515C29.5463 30.3479 29.5475 30.3444 29.5495 30.3413C29.5515 30.3383 29.5543 30.3357 29.5575 30.334C29.5607 30.3323 29.5643 30.3313 29.5679 30.3313H36.6375C36.6481 30.3313 36.6585 30.3344 36.6674 30.3403C36.6763 30.3461 36.6834 30.3544 36.6877 30.3641C38.6007 34.7122 39.6055 36.9969 39.702 37.2183C40.3148 38.6241 40.8056 39.6708 41.1744 40.3582C41.5143 40.9909 41.8976 41.5513 42.3244 42.0392C42.5201 42.2625 42.7457 42.4486 43.0012 42.5972Z" fill="#009CF0"/>
<path d="M45.8466 44.5486L45.808 43.3812C45.8067 43.3497 45.7903 43.333 45.7587 43.331C45.2283 43.2989 44.7063 43.2271 44.1927 43.1157C43.7595 43.0224 43.3623 42.8496 43.0012 42.5972C43.9011 41.8306 43.8373 40.9906 43.6249 39.8977C43.4743 39.1214 43.1084 38.0609 42.5271 36.7163C42.1383 35.8171 41.2053 33.6981 39.7281 30.3593C39.7268 30.3563 39.7263 30.3529 39.7267 30.3497C39.727 30.3464 39.7281 30.3432 39.7299 30.3405C39.7317 30.3377 39.7341 30.3354 39.737 30.3338C39.7399 30.3322 39.7431 30.3314 39.7464 30.3313H46.8015C46.817 30.3312 46.8322 30.3357 46.8452 30.3441C46.8582 30.3525 46.8685 30.3645 46.8749 30.3786C49.1104 35.4669 50.3424 38.2569 50.5709 38.7487C51.1473 39.9903 51.576 40.9115 52.3638 41.8683C52.9847 42.6224 53.7909 43.0453 54.7583 43.1959C55.2205 43.268 55.617 43.3117 55.9478 43.3272C55.9826 43.3291 56 43.3475 56 43.3822V44.4906C56 44.5286 55.981 44.5476 55.943 44.5476L45.8466 44.5486Z" fill="#A4D8F4"/>
</svg>
