<svg width="70" height="70" viewBox="0 0 70 70" fill="none" xmlns="http://www.w3.org/2000/svg">
<rect width="70" height="70" rx="15" fill="#F0B66B"/>
<path d="M50.4832 35.0699V51.7443C50.4832 53.4893 49.3896 54.8465 47.9936 54.8465H44.589C43.193 54.8465 42.0994 53.4815 42.0994 51.7443V35.0699C42.0994 33.3249 43.193 31.9677 44.589 31.9677H47.9936C49.3819 31.9677 50.4832 33.3327 50.4832 35.0699Z" fill="white"/>
<path d="M50.5359 25.2902C50.3032 25.4531 50.0007 25.4608 49.7525 25.3135L47.4259 23.9175C43.5947 30.2615 38.1891 36.2333 27.7501 36.2333C25.5475 36.2333 23.1201 35.9696 20.4367 35.3801C20.0489 35.2948 19.8007 34.9148 19.8783 34.5193C19.9558 34.1625 20.2815 33.9221 20.6461 33.9531C21.2975 34.0074 36.4363 35.0234 42.7958 21.0247L40.4149 19.8691C40.0581 19.6985 39.903 19.2642 40.0736 18.9074C40.1512 18.7445 40.283 18.6205 40.4459 18.5507L48.3488 15.1925C48.7133 15.0374 49.1399 15.208 49.295 15.5725C49.3182 15.6268 49.3337 15.6811 49.3415 15.7354L50.8383 24.5689C50.8926 24.8481 50.7685 25.1351 50.5359 25.2902Z" fill="white"/>
<path d="M39.5534 41.1967V51.7442C39.5534 53.4892 38.4599 54.8465 37.0639 54.8465H33.6515C32.2555 54.8465 31.1619 53.4815 31.1619 51.7442V41.1967C31.1619 39.4517 32.2555 38.0945 33.6515 38.0945H37.0561C38.4599 38.0868 39.5534 39.4517 39.5534 41.1967Z" fill="white"/>
<path d="M28.8661 46.3V51.7443C28.8661 53.4816 27.7726 54.8466 26.3766 54.8466H22.9641C21.5681 54.8466 20.4746 53.4816 20.4746 51.7443V46.3C20.4746 44.555 21.5681 43.1978 22.9641 43.1978H26.3688C27.7726 43.19 28.8661 44.555 28.8661 46.3Z" fill="white"/>
</svg>
