<svg width="35" height="35" viewBox="0 0 35 35" fill="none" xmlns="http://www.w3.org/2000/svg">
<path d="M25.0006 22.9992V17.8717C25.0006 15.3518 24.4581 13.4268 21.5181 13.4268C20.1006 13.4268 19.1556 14.1968 18.7706 14.9318H18.7356V13.6543H15.9531V22.9992H18.8581V18.3617C18.8581 17.1367 19.0856 15.9642 20.5906 15.9642C22.0781 15.9642 22.0956 17.3467 22.0956 18.4317V22.9817H25.0006V22.9992Z" fill="#09001B"/>
<path d="M11.2266 13.6553H14.1316V23.0002H11.2266V13.6553Z" fill="#09001B"/>
<path d="M12.68 9C11.7525 9 11 9.7525 11 10.68C11 11.6075 11.7525 12.3775 12.68 12.3775C13.6075 12.3775 14.36 11.6075 14.36 10.68C14.36 9.7525 13.6075 9 12.68 9Z" fill="#09001B"/>
<circle cx="17.5" cy="17.5" r="17" stroke="#DBDBDB"/>
</svg>
