<svg width="56" height="56" viewBox="0 0 56 56" fill="none" xmlns="http://www.w3.org/2000/svg">
<rect width="56" height="56" rx="10" fill="white"/>
<path fill-rule="evenodd" clip-rule="evenodd" d="M23.7666 26.6976V29.3022C23.7666 30.0797 24.0753 30.8246 24.6248 31.3742C25.1744 31.9238 25.9193 32.2325 26.6968 32.2325H29.3015C30.079 32.2325 30.8239 31.9238 31.3735 31.3742C31.9231 30.8246 32.2317 30.0797 32.2317 29.3022V26.6976C32.2317 25.9201 31.9231 25.1751 31.3735 24.6256C30.8239 24.076 30.079 23.7673 29.3015 23.7673H26.6968C25.9193 23.7673 25.1744 24.076 24.6248 24.6256C24.0753 25.1751 23.7666 25.9201 23.7666 26.6976Z" fill="#09001B"/>
<path fill-rule="evenodd" clip-rule="evenodd" d="M14 16.9302V19.5349C14 20.3124 14.3087 21.0573 14.8582 21.6069C15.4078 22.1565 16.1527 22.4651 16.9302 22.4651H19.5349C20.3124 22.4651 21.0573 22.1565 21.6069 21.6069C22.1565 21.0573 22.4651 20.3124 22.4651 19.5349V16.9302C22.4651 16.1527 22.1565 15.4078 21.6069 14.8582C21.0573 14.3087 20.3124 14 19.5349 14H16.9302C16.1527 14 15.4078 14.3087 14.8582 14.8582C14.3087 15.4078 14 16.1527 14 16.9302Z" fill="#09001B"/>
<path fill-rule="evenodd" clip-rule="evenodd" d="M33.535 36.4649V39.0696C33.535 39.847 33.8436 40.592 34.3932 41.1416C34.9428 41.6911 35.6877 41.9998 36.4652 41.9998H39.0699C39.8473 41.9998 40.5923 41.6911 41.1419 41.1416C41.6914 40.592 42.0001 39.847 42.0001 39.0696V36.4649C42.0001 35.6874 41.6914 34.9425 41.1419 34.3929C40.5923 33.8433 39.8473 33.5347 39.0699 33.5347H36.4652C35.6877 33.5347 34.9428 33.8433 34.3932 34.3929C33.8436 34.9425 33.535 35.6874 33.535 36.4649Z" fill="#09001B"/>
<path fill-rule="evenodd" clip-rule="evenodd" d="M21.4887 19.2093H38.4189C38.8513 19.2093 39.2642 19.3813 39.5702 19.686C39.8749 19.992 40.0468 20.4049 40.0468 20.8373V25.3954C40.0468 25.8278 39.8749 26.2406 39.5702 26.5467C39.2642 26.8514 38.8513 27.0233 38.4189 27.0233H34.512C33.9728 27.0233 33.5352 27.4609 33.5352 28C33.5352 28.5392 33.9728 28.9768 34.512 28.9768H38.4189C39.3683 28.9768 40.28 28.5991 40.952 27.9284C41.6227 27.2564 42.0003 26.3448 42.0003 25.3954C42.0003 23.985 42.0003 22.2477 42.0003 20.8373C42.0003 19.8879 41.6227 18.9762 40.952 18.3042C40.28 17.6335 39.3683 17.2559 38.4189 17.2559C33.1002 17.2559 21.4887 17.2559 21.4887 17.2559C20.9495 17.2559 20.512 17.6934 20.512 18.2326C20.512 18.7718 20.9495 19.2093 21.4887 19.2093Z" fill="#09001B"/>
<path fill-rule="evenodd" clip-rule="evenodd" d="M29.3023 36.7906H17.5814C17.149 36.7906 16.7362 36.6187 16.4301 36.314C16.1254 36.0079 15.9535 35.5951 15.9535 35.1627C15.9535 33.7523 15.9535 32.015 15.9535 30.6046C15.9535 30.1722 16.1254 29.7594 16.4301 29.4533C16.7362 29.1486 17.149 28.9767 17.5814 28.9767H24.7442C25.2834 28.9767 25.7209 28.5391 25.7209 27.9999C25.7209 27.4608 25.2834 27.0232 24.7442 27.0232H17.5814C16.632 27.0232 15.7204 27.4009 15.0484 28.0716C14.3777 28.7436 14 29.6552 14 30.6046V35.1627C14 36.1121 14.3777 37.0238 15.0484 37.6958C15.7204 38.3665 16.632 38.7441 17.5814 38.7441H29.3023C29.8415 38.7441 30.2791 38.3065 30.2791 37.7674C30.2791 37.2282 29.8415 36.7906 29.3023 36.7906Z" fill="#09001B"/>
<path fill-rule="evenodd" clip-rule="evenodd" d="M37.8063 29.9144L35.8932 28L37.8063 26.0856C38.1879 25.7053 38.1879 25.0854 37.8063 24.7051C37.426 24.3235 36.8061 24.3235 36.4258 24.7051L33.8212 27.3098C33.4396 27.6914 33.4396 28.3087 33.8212 28.6902L36.4258 31.2949C36.8061 31.6765 37.426 31.6765 37.8063 31.2949C38.1879 30.9146 38.1879 30.2947 37.8063 29.9144Z" fill="#09001B"/>
<path fill-rule="evenodd" clip-rule="evenodd" d="M28.6901 41.0622L31.2947 38.4576C31.6763 38.076 31.6763 37.4587 31.2947 37.0771L28.6901 34.4725C28.3098 34.0909 27.6899 34.0909 27.3096 34.4725C26.928 34.8527 26.928 35.4727 27.3096 35.8529L29.2227 37.7674L27.3096 39.6818C26.928 40.062 26.928 40.682 27.3096 41.0622C27.6899 41.4438 28.3098 41.4438 28.6901 41.0622Z" fill="#09001B"/>
</svg>
