<svg width="70" height="70" viewBox="0 0 70 70" fill="none" xmlns="http://www.w3.org/2000/svg">
<rect width="70" height="70" rx="15" fill="#009CF0"/>
<path d="M25.5164 23.7911L22.0678 20.3426C21.5915 19.8663 20.8198 19.8663 20.3435 20.3426C19.8673 20.8189 19.8673 21.5906 20.3435 22.0669L23.7921 25.5154C24.2684 25.9917 25.0401 25.9917 25.5164 25.5154C25.9927 25.0391 25.9927 24.2674 25.5164 23.7911Z" fill="white"/>
<path d="M20.3667 33.7807H15.4079C14.7339 33.7807 14.1885 34.3261 14.1885 35.0001C14.1885 35.6741 14.7339 36.2195 15.4079 36.2195H20.3667C21.0407 36.2195 21.5861 35.6741 21.5861 35.0001C21.5861 34.3261 21.0407 33.7807 20.3667 33.7807Z" fill="white"/>
<path d="M54.5915 33.7807H49.6327C48.9587 33.7807 48.4133 34.3261 48.4133 35.0001C48.4133 35.6741 48.9587 36.2195 49.6327 36.2195H54.5915C55.2655 36.2195 55.8109 35.6741 55.8109 35.0001C55.8109 34.3261 55.2655 33.7807 54.5915 33.7807Z" fill="white"/>
<path d="M49.6572 20.3423C49.1809 19.866 48.4092 19.866 47.9329 20.3423L44.4844 23.7908C44.0081 24.2671 44.0081 25.0388 44.4844 25.5151C44.9606 25.9914 45.7324 25.9914 46.2086 25.5151L49.6572 22.0666C50.1335 21.5903 50.1335 20.8186 49.6572 20.3423Z" fill="white"/>
<path d="M35.0006 14.1895C34.3266 14.1895 33.7812 14.7348 33.7812 15.4088V20.3677C33.7812 21.0417 34.3266 21.587 35.0006 21.587C35.6746 21.587 36.22 21.0417 36.22 20.3677V15.4088C36.22 14.7348 35.6746 14.1895 35.0006 14.1895Z" fill="white"/>
<path d="M41.8304 26.3912C39.1722 24.2938 35.7335 23.5379 32.368 24.3427C28.4659 25.245 25.32 28.3422 24.3688 32.2199C23.4177 36.1219 24.5151 40.0727 27.3196 42.8285C28.3196 43.8284 28.9049 45.3973 28.9049 47.007V47.2752C28.9049 47.958 29.4414 48.4946 30.1243 48.4946H39.8794C40.5623 48.4946 41.0987 47.958 41.0987 47.2752V47.007C41.0987 45.4217 41.7084 43.804 42.7815 42.7553C44.8301 40.6824 45.9763 37.9266 45.9763 35.0001C45.9763 31.6346 44.4642 28.4885 41.8304 26.3912ZM35.0018 31.342C33.1622 31.342 31.823 32.5622 31.4723 33.9749C31.3127 34.6173 30.6663 35.0273 29.9945 34.8656C29.3419 34.7036 28.9429 34.0415 29.105 33.389C29.7091 30.9502 31.9998 28.9032 35.0018 28.9032C35.6758 28.9032 36.2212 29.4486 36.2212 30.1226C36.2212 30.7966 35.6758 31.342 35.0018 31.342Z" fill="white"/>
<path d="M30.1211 50.9332V52.1526C30.1211 54.1698 31.7621 55.8108 33.7792 55.8108H36.218C38.2352 55.8108 39.8762 54.1698 39.8762 52.1526V50.9332H30.1211Z" fill="white"/>
</svg>
