<svg width="59" height="59" viewBox="0 0 59 59" fill="none" xmlns="http://www.w3.org/2000/svg">
<rect width="59" height="59" rx="10" fill="#09001B"/>
<path d="M44.4005 21.0346L37.6424 14.2765C37.3068 13.9273 36.7034 13.9274 36.3678 14.2765L29.6097 21.0346C29.3519 21.2923 29.2748 21.68 29.4143 22.0168C29.5538 22.3536 29.8825 22.5733 30.247 22.5733H33.2075V43.877C33.2075 44.3748 33.611 44.7784 34.1088 44.7784H39.9015C40.3992 44.7784 40.8028 44.3748 40.8028 43.877V22.5733H43.7632C44.1278 22.5733 44.4565 22.3536 44.596 22.0168C44.7354 21.68 44.6583 21.2924 44.4005 21.0346Z" fill="white"/>
<path d="M30.2467 26.5635H24.4541C23.9563 26.5635 23.5527 26.967 23.5527 27.4648V43.8773C23.5527 44.3751 23.9563 44.7786 24.4541 44.7786H30.2467C30.7445 44.7786 31.1481 44.3751 31.1481 43.8773V27.4648C31.1481 26.967 30.7445 26.5635 30.2467 26.5635Z" fill="white"/>
<path d="M20.5924 34.2867H14.7998C14.302 34.2867 13.8984 34.6903 13.8984 35.1881V43.877C13.8984 44.3748 14.302 44.7784 14.7998 44.7784H20.5924C21.0902 44.7784 21.4938 44.3748 21.4938 43.877V35.1881C21.4938 34.6903 21.0902 34.2867 20.5924 34.2867Z" fill="white"/>
</svg>
