<svg width="70" height="70" viewBox="0 0 70 70" fill="none" xmlns="http://www.w3.org/2000/svg">
<rect width="69.3313" height="69.3308" rx="15" fill="#FBFAFC"/>
<path d="M46.1096 14.6175L42.3966 20.5273C40.1588 19.3243 37.7317 18.6514 34.8375 18.6153C33.3137 18.5963 32.1568 18.8839 31.5017 18.9661L30.2225 12.1167C31.7009 11.816 33.2677 11.6514 34.8379 11.6514C38.9148 11.6514 42.7956 12.75 46.1096 14.6175Z" fill="#F2F2F2"/>
<path d="M57.736 34.5503C57.736 36.1205 57.5779 37.6555 57.2769 39.137L50.4555 37.7093C50.6643 36.69 50.772 35.6328 50.772 34.5503C50.772 28.498 47.3786 23.2243 42.3994 20.5275L46.1125 14.6177C53.0512 18.5489 57.736 26.0003 57.736 34.5503Z" fill="#F2F2F2"/>
<path d="M26.0192 47.8111L21.2078 52.9518C15.5828 48.7796 11.9395 42.0911 11.9395 34.5511C11.9395 23.4847 19.7867 14.2543 30.2231 12.1177L31.5023 18.9671C24.7942 20.5283 18.9034 26.4412 18.9034 34.5511C18.9034 40.078 21.7332 44.9558 26.0192 47.8111Z" fill="#A683FB"/>
<path d="M57.276 39.1376C55.1076 49.5264 45.8741 57.4464 34.8395 57.4464C29.7305 57.4464 25.0171 55.7751 21.2091 52.9515C21.1459 52.9039 21.0824 52.8566 21.0224 52.809L25.9857 47.7853C25.9984 47.7946 26.0078 47.8043 26.0205 47.8105C28.5465 49.4977 31.5789 50.4822 34.8395 50.4822C42.5411 50.4822 48.9859 44.987 50.4546 37.7096C50.4577 37.7 50.4577 37.6875 50.4608 37.6779L57.276 39.1376Z" fill="#A683FB"/>
</svg>
