<svg width="166" height="173" viewBox="0 0 166 173" fill="none" xmlns="http://www.w3.org/2000/svg">
<rect width="166" height="173" rx="15" fill="white"/>
<path d="M20.21 156.13C18.71 156.13 18.2 155.07 18.2 153.93V153.7H18.93V153.93C18.93 154.84 19.21 155.49 20.21 155.49C21.22 155.49 21.51 154.84 21.51 153.93V148.85H22.24V153.93C22.24 155.07 21.71 156.13 20.21 156.13ZM24.8535 156.13C23.8335 156.13 23.1835 155.56 23.1835 154.71C23.1835 153.61 23.9635 153.26 25.2835 153.03C26.1235 152.88 26.6635 152.82 26.6635 152.21C26.6635 151.69 26.3235 151.34 25.5035 151.34C24.5135 151.34 24.1635 151.69 24.1135 152.44H23.4235C23.4735 151.54 24.0435 150.77 25.5235 150.77C26.4635 150.77 27.2935 151.17 27.2935 152.39V154.94C27.2935 155.35 27.3535 155.54 27.5835 155.54C27.6235 155.54 27.6635 155.54 27.7235 155.53V156C27.6135 156.02 27.5035 156.04 27.3835 156.04C26.9535 156.04 26.7035 155.87 26.6635 155.23H26.6435C26.2935 155.81 25.6835 156.13 24.8535 156.13ZM24.9335 155.56C25.9735 155.56 26.6635 155.01 26.6635 154.09V153.14C26.5135 153.35 25.9735 153.47 25.3635 153.57C24.3735 153.75 23.8635 154 23.8635 154.65C23.8635 155.24 24.1935 155.56 24.9335 155.56ZM31.0102 150.78C31.9202 150.78 32.6802 151.29 32.6802 152.42V156H32.0302V152.56C32.0302 151.91 31.7302 151.35 30.8502 151.35C29.8802 151.35 29.2402 152.03 29.2402 152.78V156H28.5902V150.9H29.2402V151.63H29.2602C29.5502 151.21 30.1002 150.78 31.0102 150.78Z" fill="#09001B"/>
<path d="M48.49 156H47.76V148.85H52.54V149.49H48.49V152.02H51.83V152.66H48.49V156ZM57.3041 153.22C57.3041 153.36 57.3041 153.5 57.2941 153.58H53.2541C53.2641 154.61 53.8141 155.58 55.0141 155.58C56.0641 155.58 56.4741 154.86 56.5741 154.44H57.2341C56.9841 155.37 56.2841 156.14 55.0041 156.14C53.4441 156.14 52.5741 155 52.5741 153.45C52.5741 151.82 53.5341 150.77 55.0041 150.77C56.4741 150.77 57.3041 151.8 57.3041 153.22ZM53.2541 153.01H56.6141C56.6141 152.1 56.0241 151.33 54.9741 151.33C53.9841 151.33 53.3041 152.06 53.2541 153.01ZM60.6052 150.77C61.8552 150.77 62.8552 151.77 62.8552 153.45C62.8552 155.12 61.8552 156.12 60.6052 156.12C59.7152 156.12 59.1852 155.68 58.8852 155.13H58.8652V156H58.2152V148.85H58.8652V151.72H58.8852C59.1852 151.23 59.7152 150.77 60.6052 150.77ZM60.5352 155.55C61.5952 155.55 62.1752 154.59 62.1752 153.45C62.1752 152.3 61.5952 151.33 60.5352 151.33C59.5552 151.33 58.8652 152.16 58.8652 153.45C58.8652 154.73 59.5552 155.55 60.5352 155.55Z" fill="#09001B"/>
<path d="M77.49 156H76.76V148.85H77.77L80.18 155.02H80.2L82.62 148.85H83.63V156H82.9V149.88H82.88L80.52 156H79.86L77.51 149.88H77.49V156ZM86.3105 156.13C85.2905 156.13 84.6405 155.56 84.6405 154.71C84.6405 153.61 85.4205 153.26 86.7405 153.03C87.5805 152.88 88.1205 152.82 88.1205 152.21C88.1205 151.69 87.7805 151.34 86.9605 151.34C85.9705 151.34 85.6205 151.69 85.5705 152.44H84.8805C84.9305 151.54 85.5005 150.77 86.9805 150.77C87.9205 150.77 88.7505 151.17 88.7505 152.39V154.94C88.7505 155.35 88.8105 155.54 89.0405 155.54C89.0805 155.54 89.1205 155.54 89.1805 155.53V156C89.0705 156.02 88.9605 156.04 88.8405 156.04C88.4105 156.04 88.1605 155.87 88.1205 155.23H88.1005C87.7505 155.81 87.1405 156.13 86.3105 156.13ZM86.3905 155.56C87.4305 155.56 88.1205 155.01 88.1205 154.09V153.14C87.9705 153.35 87.4305 153.47 86.8205 153.57C85.8305 153.75 85.3205 154 85.3205 154.65C85.3205 155.24 85.6505 155.56 86.3905 155.56ZM92.1673 150.78C92.3473 150.78 92.4873 150.79 92.6073 150.81V151.45C92.5073 151.43 92.3973 151.42 92.2973 151.42C91.3773 151.42 90.6973 152.16 90.6973 153.15V156H90.0473V150.9H90.6973V151.94H90.7173C90.9773 151.27 91.4473 150.78 92.1673 150.78Z" fill="#09001B"/>
<path d="M106.84 156H106.09L108.76 148.85H109.58L112.27 156H111.49L110.77 154.02H107.56L106.84 156ZM109.16 149.54L107.8 153.37H110.54L109.18 149.54H109.16ZM115.338 150.77C116.588 150.77 117.588 151.77 117.588 153.45C117.588 155.12 116.588 156.12 115.338 156.12C114.448 156.12 113.918 155.68 113.618 155.14H113.598V157.77H112.948V150.9H113.598V151.72H113.618C113.918 151.23 114.448 150.77 115.338 150.77ZM115.268 155.55C116.328 155.55 116.908 154.59 116.908 153.45C116.908 152.3 116.328 151.34 115.268 151.34C114.288 151.34 113.598 152.16 113.598 153.45C113.598 154.73 114.288 155.55 115.268 155.55ZM120.634 150.78C120.814 150.78 120.954 150.79 121.074 150.81V151.45C120.974 151.43 120.864 151.42 120.764 151.42C119.844 151.42 119.164 152.16 119.164 153.15V156H118.514V150.9H119.164V151.94H119.184C119.444 151.27 119.914 150.78 120.634 150.78Z" fill="#09001B"/>
<path d="M134.49 156H133.76V148.85H134.77L137.18 155.02H137.2L139.62 148.85H140.63V156H139.9V149.88H139.88L137.52 156H136.86L134.51 149.88H134.49V156ZM143.311 156.13C142.291 156.13 141.641 155.56 141.641 154.71C141.641 153.61 142.421 153.26 143.741 153.03C144.581 152.88 145.121 152.82 145.121 152.21C145.121 151.69 144.781 151.34 143.961 151.34C142.971 151.34 142.621 151.69 142.571 152.44H141.881C141.931 151.54 142.501 150.77 143.981 150.77C144.921 150.77 145.751 151.17 145.751 152.39V154.94C145.751 155.35 145.811 155.54 146.041 155.54C146.081 155.54 146.121 155.54 146.181 155.53V156C146.071 156.02 145.961 156.04 145.841 156.04C145.411 156.04 145.161 155.87 145.121 155.23H145.101C144.751 155.81 144.141 156.13 143.311 156.13ZM143.391 155.56C144.431 155.56 145.121 155.01 145.121 154.09V153.14C144.971 153.35 144.431 153.47 143.821 153.57C142.831 153.75 142.321 154 142.321 154.65C142.321 155.24 142.651 155.56 143.391 155.56ZM147.351 157.79C147.191 157.79 147.071 157.78 146.861 157.75V157.19C147.011 157.21 147.091 157.22 147.251 157.22C147.731 157.22 148.121 156.91 148.401 155.97L146.341 150.9H147.061L148.721 155.15H148.741L150.321 150.9H151.021L148.981 156.15C148.481 157.42 148.031 157.79 147.351 157.79Z" fill="#09001B"/>
<rect x="22" y="90" width="8" height="51" rx="4" fill="black" fill-opacity="0.05"/>
<rect x="51" y="59" width="9" height="82" rx="4.5" fill="black" fill-opacity="0.05"/>
<rect x="80" y="62" width="9" height="79" rx="4.5" fill="black" fill-opacity="0.05"/>
<rect x="109" y="52" width="9" height="89" rx="4.5" fill="black" fill-opacity="0.05"/>
<rect x="139" y="40" width="8" height="101" rx="4" fill="black" fill-opacity="0.05"/>
<rect x="22" y="116" width="8" height="25" rx="4" fill="#09001B"/>
<rect x="51" y="99" width="9" height="42" rx="4.5" fill="#09001B"/>
<rect x="80" y="93" width="9" height="48" rx="4.5" fill="#09001B"/>
<rect x="109" y="90" width="9" height="51" rx="4.5" fill="#09001B"/>
<rect x="139" y="82" width="8" height="59" rx="4" fill="#09001B"/>
<path d="M27.148 28H25.852V19.42H27.592L30.064 26.164H30.088L32.572 19.42H34.312V28H33.016V21.34H32.992L30.628 28H29.536L27.172 21.34H27.148V28ZM40.4042 28.168C37.8362 28.168 36.1922 26.284 36.1922 23.704C36.1922 21.124 37.8362 19.252 40.4042 19.252C42.9722 19.252 44.6162 21.124 44.6162 23.704C44.6162 26.284 42.9722 28.168 40.4042 28.168ZM40.4042 27.028C42.4322 27.028 43.2362 25.468 43.2362 23.704C43.2362 21.94 42.4322 20.392 40.4042 20.392C38.3762 20.392 37.5722 21.94 37.5722 23.704C37.5722 25.468 38.3762 27.028 40.4042 27.028ZM47.8251 28H46.5051V19.42H48.0171L52.0011 26.02H52.0251V19.42H53.3571V28H51.8451L47.8491 21.4H47.8251V28ZM59.0918 28H57.7598V20.56H54.9878V19.42H61.8638V20.56H59.0918V28ZM64.8103 28H63.4903V19.42H64.8103V23.008H69.0223V19.42H70.3543V28H69.0223V24.148H64.8103V28ZM78.309 28H72.645V19.42H73.965V26.86H78.309V28ZM82.131 28H80.799V24.568L77.727 19.42H79.155L81.459 23.524H81.483L83.787 19.42H85.203L82.131 24.568V28ZM90.7767 28H89.4567V19.42H93.0327C94.9287 19.42 95.9487 20.308 95.9487 21.892C95.9487 22.984 95.2887 23.776 94.3407 23.992V24.016C96.3327 24.388 95.6007 27.772 96.0687 27.916V28H94.6527C94.2687 27.64 95.0847 24.64 92.9847 24.64H90.7767V28ZM90.7767 23.5H92.7447C93.9567 23.5 94.6167 22.972 94.6167 21.988C94.6167 21.064 94.0887 20.56 92.7687 20.56H90.7767V23.5ZM104.124 28H97.9317V19.42H104.004V20.56H99.2517V22.996H103.416V24.136H99.2517V26.86H104.124V28ZM109.575 28H108.147L105.123 19.42H106.575L108.855 26.608H108.867L111.135 19.42H112.527L109.575 28ZM120.289 28H114.097V19.42H120.169V20.56H115.417V22.996H119.581V24.136H115.417V26.86H120.289V28ZM123.446 28H122.126V19.42H123.638L127.622 26.02H127.646V19.42H128.978V28H127.466L123.47 21.4H123.446V28ZM134.569 28.168C132.217 28.168 131.221 26.932 131.221 25.084V19.42H132.541V25.084C132.541 26.416 133.213 27.028 134.569 27.028C135.937 27.028 136.597 26.416 136.597 25.084V19.42H137.929V25.084C137.929 26.932 136.933 28.168 134.569 28.168ZM146.37 28H140.178V19.42H146.25V20.56H141.498V22.996H145.662V24.136H141.498V26.86H146.37V28Z" fill="#09001B"/>
<circle cx="14" cy="24" r="4" fill="#A683FB"/>
</svg>
